<mxfile host="app.diagrams.net" modified="2023-03-01T06:17:49.985Z" agent="5.0 (Windows NT 10.0; Win64; x64) AppleWebKit/537.36 (KHTML, like Gecko) Chrome/110.0.0.0 Safari/537.36" etag="TMJD7K3-Nb-UNzIdNS7f" version="20.8.23" type="github" pages="2">
  <diagram id="C5RBs43oDa-KdzZeNtuy" name="客户响应中心">
    <mxGraphModel dx="1304" dy="565" grid="1" gridSize="10" guides="1" tooltips="1" connect="1" arrows="1" fold="1" page="1" pageScale="1" pageWidth="827" pageHeight="1169" math="0" shadow="0">
      <root>
        <mxCell id="WIyWlLk6GJQsqaUBKTNV-0" />
        <mxCell id="WIyWlLk6GJQsqaUBKTNV-1" parent="WIyWlLk6GJQsqaUBKTNV-0" />
        <mxCell id="WIyWlLk6GJQsqaUBKTNV-2" value="" style="rounded=0;html=1;jettySize=auto;orthogonalLoop=1;fontSize=11;endArrow=block;endFill=0;endSize=8;strokeWidth=1;shadow=0;labelBackgroundColor=none;edgeStyle=orthogonalEdgeStyle;" parent="WIyWlLk6GJQsqaUBKTNV-1" source="WIyWlLk6GJQsqaUBKTNV-3" target="WIyWlLk6GJQsqaUBKTNV-6" edge="1">
          <mxGeometry relative="1" as="geometry" />
        </mxCell>
        <mxCell id="WIyWlLk6GJQsqaUBKTNV-3" value="Lamp doesn&#39;t work" style="rounded=1;whiteSpace=wrap;html=1;fontSize=12;glass=0;strokeWidth=1;shadow=0;" parent="WIyWlLk6GJQsqaUBKTNV-1" vertex="1">
          <mxGeometry x="160" y="80" width="120" height="40" as="geometry" />
        </mxCell>
        <mxCell id="WIyWlLk6GJQsqaUBKTNV-4" value="Yes" style="rounded=0;html=1;jettySize=auto;orthogonalLoop=1;fontSize=11;endArrow=block;endFill=0;endSize=8;strokeWidth=1;shadow=0;labelBackgroundColor=none;edgeStyle=orthogonalEdgeStyle;" parent="WIyWlLk6GJQsqaUBKTNV-1" source="WIyWlLk6GJQsqaUBKTNV-6" target="WIyWlLk6GJQsqaUBKTNV-10" edge="1">
          <mxGeometry y="20" relative="1" as="geometry">
            <mxPoint as="offset" />
          </mxGeometry>
        </mxCell>
        <mxCell id="WIyWlLk6GJQsqaUBKTNV-5" value="No" style="edgeStyle=orthogonalEdgeStyle;rounded=0;html=1;jettySize=auto;orthogonalLoop=1;fontSize=11;endArrow=block;endFill=0;endSize=8;strokeWidth=1;shadow=0;labelBackgroundColor=none;" parent="WIyWlLk6GJQsqaUBKTNV-1" source="WIyWlLk6GJQsqaUBKTNV-6" target="WIyWlLk6GJQsqaUBKTNV-7" edge="1">
          <mxGeometry y="10" relative="1" as="geometry">
            <mxPoint as="offset" />
          </mxGeometry>
        </mxCell>
        <mxCell id="WIyWlLk6GJQsqaUBKTNV-6" value="Lamp&lt;br&gt;plugged in?" style="rhombus;whiteSpace=wrap;html=1;shadow=0;fontFamily=Helvetica;fontSize=12;align=center;strokeWidth=1;spacing=6;spacingTop=-4;" parent="WIyWlLk6GJQsqaUBKTNV-1" vertex="1">
          <mxGeometry x="170" y="170" width="100" height="80" as="geometry" />
        </mxCell>
        <mxCell id="WIyWlLk6GJQsqaUBKTNV-7" value="Plug in lamp" style="rounded=1;whiteSpace=wrap;html=1;fontSize=12;glass=0;strokeWidth=1;shadow=0;" parent="WIyWlLk6GJQsqaUBKTNV-1" vertex="1">
          <mxGeometry x="320" y="190" width="120" height="40" as="geometry" />
        </mxCell>
        <mxCell id="WIyWlLk6GJQsqaUBKTNV-8" value="No" style="rounded=0;html=1;jettySize=auto;orthogonalLoop=1;fontSize=11;endArrow=block;endFill=0;endSize=8;strokeWidth=1;shadow=0;labelBackgroundColor=none;edgeStyle=orthogonalEdgeStyle;" parent="WIyWlLk6GJQsqaUBKTNV-1" source="WIyWlLk6GJQsqaUBKTNV-10" target="WIyWlLk6GJQsqaUBKTNV-11" edge="1">
          <mxGeometry x="0.3333" y="20" relative="1" as="geometry">
            <mxPoint as="offset" />
          </mxGeometry>
        </mxCell>
        <mxCell id="WIyWlLk6GJQsqaUBKTNV-9" value="Yes" style="edgeStyle=orthogonalEdgeStyle;rounded=0;html=1;jettySize=auto;orthogonalLoop=1;fontSize=11;endArrow=block;endFill=0;endSize=8;strokeWidth=1;shadow=0;labelBackgroundColor=none;" parent="WIyWlLk6GJQsqaUBKTNV-1" source="WIyWlLk6GJQsqaUBKTNV-10" target="WIyWlLk6GJQsqaUBKTNV-12" edge="1">
          <mxGeometry y="10" relative="1" as="geometry">
            <mxPoint as="offset" />
          </mxGeometry>
        </mxCell>
        <mxCell id="WIyWlLk6GJQsqaUBKTNV-10" value="Bulb&lt;br&gt;burned out?" style="rhombus;whiteSpace=wrap;html=1;shadow=0;fontFamily=Helvetica;fontSize=12;align=center;strokeWidth=1;spacing=6;spacingTop=-4;" parent="WIyWlLk6GJQsqaUBKTNV-1" vertex="1">
          <mxGeometry x="170" y="290" width="100" height="80" as="geometry" />
        </mxCell>
        <mxCell id="WIyWlLk6GJQsqaUBKTNV-11" value="Repair Lamp" style="rounded=1;whiteSpace=wrap;html=1;fontSize=12;glass=0;strokeWidth=1;shadow=0;" parent="WIyWlLk6GJQsqaUBKTNV-1" vertex="1">
          <mxGeometry x="160" y="430" width="120" height="40" as="geometry" />
        </mxCell>
        <mxCell id="WIyWlLk6GJQsqaUBKTNV-12" value="Replace Bulb" style="rounded=1;whiteSpace=wrap;html=1;fontSize=12;glass=0;strokeWidth=1;shadow=0;" parent="WIyWlLk6GJQsqaUBKTNV-1" vertex="1">
          <mxGeometry x="320" y="310" width="120" height="40" as="geometry" />
        </mxCell>
      </root>
    </mxGraphModel>
  </diagram>
  <diagram id="CedgReP-z1SRrH05e4Ly" name="care">
    <mxGraphModel dx="1304" dy="1734" grid="1" gridSize="10" guides="1" tooltips="1" connect="1" arrows="1" fold="1" page="1" pageScale="1" pageWidth="827" pageHeight="1169" math="0" shadow="0">
      <root>
        <mxCell id="0" />
        <mxCell id="1" parent="0" />
        <mxCell id="jt2V4Dkn-G00_b4HjtjB-1" value="" style="shape=image;imageAspect=0;aspect=fixed;verticalLabelPosition=bottom;verticalAlign=top;image=data:image/png,iVBORw0KGgoAAAANSUhEUgAABAUAAAIOCAMAAAGAN3QpAAAAAXNSR0IArs4c6QAAAARnQU1BAACxjwv8YQUAAAKjUExURQAAAAAAACwsLKCgoOj4/tjY2C0tLeUADNnZ2egADW4ABQcHB+UADAAAAC4uLgCx8AQEBNTU1NjY2OcADdnZ2eUADQCw8DQ0NOUADgAAAH5+fgAAAOYADQAAAOI2QNnZ2eYADH9/fwYGBqsACgAAAOYADS0tLQAAAACv7wEBAQC//wAAANjY2OUADc0ADNjY2H3X96mpqQAAANjY2OUADNnZ2QCx8dra2uUADBAQENq6vLUACdz0/eQAC+YADJXe+djY2F5eXtjY2NnZ2eUADdbW1jg4OOcAD+YADNra2hISEl9fXwCv77S0tOYADYeHh9jY2AAAAN8ADeYADtnZ2QCw8OYADdjY2NfX1wCv79vb26fk+q+vr3/X9+UADNnZ2eYADUJCQtjY2OkACuUADAYGBtjY2OUADQAAAL+/v////wAAANnZ2ecAC+UADBkZGd8AAJCQkOYADY2NjdjY2NnZ2Xx8fOYADDExMQAAAP8AAOYADdfX14+Pj9jY2N8AD+UADOYADeUADeUADRYAAcLs+9TU1NjY2OUADNnZ2eL2/Y6OjuQACuUADEZGRgCv79jY2OcADdnZ2eUADQC//wCv70dHR+YADOYADW5ubuUADUhISAAAANnZ2dTy/Ca88uYADdvFxuYADNjY2B8fH4EAByMjI9fX18zv/OYADN2jpmbQ9gCw8NnZ2eYADdjY2AAAAOUADL+/vx0dHd/f39jY2CMjI9nZ2eUADQAAANnZ2UBAQDQ0NAAAANjY2KWlpQAAAHR0dAAAAOkAFd/f39nZ2ecAC+UADLbo++QAC+YADQAAAEFBQdjY2NnZ2QCt7QAAAACv8HZ2dgAAAPb8/tnZ2eIADjs7O+YADUnH9NfX19jY2FFRUeYADtnZ2e/6/tra2nhzqK8AAADhdFJOUwDW////SP/Lrzgz/2TL/2z8DFBMt9PP1Gyt/+7PWf9YaP/Dq3TXb4/b4wi9FJePg///Q3Dz1zhon///tf9Ek/+L/3jf+yz/IO8c//8wsZtPk6f/NOf/9+80+yT///+3m//69xhQ8zy/fgT/a/9Ax/8IWrv/s0TNVHHiBMNU/7sQFFyDcP//GFzfw//8MHj/12Rgy+cEcP/bh/+A/4DT///j/4/bu///IP98///zh+vj9zz/+Qgo4Y+r/3zjWGqXz+z/VwwQ6yyz/1inMXyfMCweq/+g//Mk3a//QKf/SPv/OLppraIAAAAJcEhZcwAAFxEAABcRAcom8z8AAJhNSURBVHhe7f2NoyTJmt4HVZ0aw4pyI2xhQcNiczBLC7XA0PrYKXtgzO7duitKyMb4XH1MtXXQXTznHmpcF2Eheq3UtXXd0mxzXd7RSqxruDsN1zg1Ylh8KFZYYWhxKHbFmMb4rKt3uS0Vd/yn8DxvPFmZ9ZH1kfVdJ37dpyorMvLNyIg33ngjMjKy9H3n3PdLe/wq4WvPuNLFQn5TcbeDUnB97T+u315rk9/+/8WF4m4HS8F7FzgV/j3HqT97ztN/8PzL59dPX2DHZ9tOwfeVB/x//eKzr55ff379Av+ur9975/3rpxcXL7edgtLe9WD/bLo2up5z9cf6sRSu1BpH4bkoWorCPb9RjVot576ln8uQnwJsd1xrOGy5JNg9gQnjjzEsssDZq9OhoFzWxjRzUxCft9qtWjMJLj/s9y240W4hs+MIV5s9F+O5Dj+JAj1Ieh7fx3GQ5uJWHLeGI4HfNnndVi9uVVrI2PGEtc6GTeeGEY5L9/CsY/x17VgI4naRgopzlUr2knA9+N/GB1Fg6RLbUeWs1RoyJcmeT0YJQKJcra4fdsRiFDtBoZYC6AD+j10po1crzXYTKfBJYOC7/0qahLbFJxZ/ISwFqBuOqrteWgrAS0lQYBJM3Wj7TYWXSr+Pv5henwKFTvMTH2vDY5roj3ExtGHiVMMh1IMo0IKH3TjmERHqytiZ8MtBORj/zytoFr+tb4/qQrOLq+pxS+E+BRWI5Pd4sBsOhzUkzCdc4R6LC/QzJb8uzK2NLZbpdB6Mo/CEVuSmz4/SRkyHUmbxQQbSburKPbkpyEHRUhQ+Ipp9uYgZK0MzMrRzJ+iUhNvemmVTcKnvpfmuvpfESgHZYKdVCrqWgqRtnE4BomVQYGFwZlz0sOEalgJWWeVBUmg7SAGuv47aaimwFtTnwQ5TgItuewtiErm1KAVofNowPtbaKXAhD3MqPvUgIXNx3OMjzEyB6atz0ViDtYiBvldmVgqGvSEbZkOBW2TbepDP5mvj5Q+0kcv4uTZbFwbl18/cXfnhHLdwivwUrA50F5rb6sb16mzd1dUk+MDcFKB4xvv6i5FgMPIsy89KbnAz0FngANTgcgzjmllEH5ivB6sDC9KoD+lBnifynXtE+ztKQY1WJmo1EnOUYTMp8O6bByIvSx9/XPq49GHpww9L7+IM2pOgw8SG8oCaAMbcvRQ7L02t3/CBa5SCc/2bkR4RCk//FJjFn3giBWvUBdcfuLtXd2kaKDWGdPM381MgT2lGChx6d0/0sxCUio5UNOHypjA4gw/M5sErV77yv9biTt9LktEDVy4/fPZQv7fJ1/U9DvPgrt93hRvXFchPwa4YT8EmbeKyfKRvzxq1cQqpuFDgDEIKbLwjw4bbRpi7mF2CFVKQsLE8cMMoalXQCitwBltOAbyTXuqhzORTfXvWKgV4HuWRJi2vB+MpWEMTHf71Xen1qHXUqYUCZ7CxFBTmXX17CqdgjSSPp2AfVnk8BQnTKVBxJiiUKCRBocvzob7H2V8K8ktB8hMUSmj7QBTbcPi6KcjXRJz1HKeqdLwDrlCCFNiYKvom/FTo8kyO6noupzArj/8cwz/DeRR8eTmVOz/UjmX5X+ucniQF08C+RlWmANeLS1UosfO6OEYDQBRalEQPpjHpKQol9ttFTSuJtVOQj0lPUSix3641bHZtS6Gbx6SnKJQoJEGhRckvhV2Rr4m7AnkwNS1ip197h2nQDfY5+LjbgVqg0/hJFxdfvOC8i+f48ZwbDNxBCr5iAt57Y2e8ePGW6Xl6wVR8cf30/Z2kgPhJGPx3/d94wSkYSMHzp9efvbflFOxfD7bBT+p7T7BBb/X1YxlYCrLuCX5HPoqWonCPpWDmLc8cqIkSlOB3JMFDN/RtMEKuXnN01oKz+OgGvQaE4IAfU4h4kjvWvjAFLXdmtwgZjB7SI4ZHru5cD6F+woePDn4RPyy5yQEp+VMwfAqQ7t5wiDPxUAuH10gpfpTYPiyYYBtndr0KHATuGO2xH1kUTvIH+Lwe4MS9mLk9SsE3vEAFEQtGZ+NrdN4U5q/W7/C/GYIc0lyU3/C7FuJjj1Aog4cu6rXO4ZKnwd9kgtvtdL6L34M8+2n74VzbCojYAcvAw+jyQeeYrQrNS5jC00H88T2pnPwEfPxNbRBfCtQ1V4nYA5lIAQROz8EYRr67cF4b35Mc04Jvn39+K+KUibowlQc80YRL3mrVcf6uJj4BhRv//oyw+SyqjcwDP+FFoVPRJ8/GivLT2h4DJQeniBMvKAJX1rTtOSnIQ9FSFD6ire8JGBVJ4AHcFKYHm2a6B2rolACbtCU+NWuQc6I5KYDCQ4mVgngyBeiPTmDJTVFoyuxhCDAnBbC7PgWgFtuQ35xSsGgpCk1ZPQWOs4GSFAxbXcuD3AZjcQpmDwaBOSmIq6MUcAPMTwFyjIn2s4gUmrJ6ChKyF7cgD2pIRA/pyJrKETkpGJRzUpDDfD2AicTlt+3unUJTVs2D1WEeZVBoyv5TMD44nGFhCsYirFEbZ6VgMHhWKv2gNOjP0a8Jlo85xXQKqDXQG/xn8zyd5pkXlZ+Cqb6+wkfMSgFsLusN0oAvBrkyjrsraQ4GguHjwoGpnI+mB6yRB9O3amhBzNijPU9P4O7cQOnHrjrnf3R7tDU+whw9WMSsFNi00gS2NZyB8fGHsOAfli5/aBEy6LDC5ORBZMpAT1GhGXRmyyeg0MJ8gm7IYMCiVoClwETDmvuJfxPYzokUrFUKfVzyTWZOvInVRHug0AzakWBhWU3s9588Gyzf7R2/dUso1U5/zo8CKaDC3sCiLMl0CsRqVjmbgkGZeaofi9lQCrJ6MJBqLcmGUrAGs6dygGNLwRq1cToFUvEEhS4gq4krsv8U/D/0naIzJyh0AWukYBraWzc8a1ZddaZvO5M19GAa9orQLWpMdch2Bs7Ka291bQhlFynoo1ViMSato503xQcuYq1SYNvo3LNR66gzJ/jARWxUEwuxRgo2ZHz3nwdz9EClmaBQQ0EJCt04Ep+gUENBCQrdOBKfoFCDpqcVRW3n4jbcc4UWY34pnPGhsqiB/sVkCjowPTa0sLbxSzVR0yNSIJrVvY1z2SN/6USLqexR+NLolMacutBq1c5rLrZR9Anv384bx7GfoLKpPJjChKco1ODvKOLskKldK7NGbcTZfQu0Xgrm4KWPUKihoASFHisb9VAKwUmO9xy/EMfv1i32dfDyjhCvh7qK9TBJR4su4sXF55yD8o6fCvKUs0HAiw9ePLUJMvbvJT9ePH95ffHVNWLjGESxoyXrCKEe2CXw8nB9uKSLd/D5FbdwpRcvrt95fvHm4unT66dPLVOeXn/1/L03Pn8unr7hJ/Hijo/vmzm0S1geLs8yjRd4fPgW4V/XVayDl3eEHHyjeOVc+Q+6OC7BW1bQhtnF6lTy4eagiLN4jEvnZCj4ov8ZBW0YnwFKSQ4WJYvCNS2EfnKkGSJAcTJoxxwUcYq/q/0p2rF5JD8HRUpROMonjiqRQ8eV2wpVHKht3/UfUXkteNgddplbQ2ABUbKMC/CHTPAj2wXBOEEUccEen82/rv2z6A+S56lXgXpgomP2vlzLpkP469FV+XgZfDCH66pIWNOhQ62ZSkBxrkp3Aw6xAQuO4jPXpUqLuO34zEVeX8+CCeNqy3+RX1GsKa5Kz5a/KyJ8o2hy+Qw4rqU2rFo60VHWydXN9nAOlYXmYWJT/mgSveIf+vXP/kaZiWRAccWvKtTDLEDRNGEPxg5S5PXxLYLJjM+GnEQ2HEaWBVVX5RPzwMfMYKHYZ/+r1AUkNFmRSnES3r38yIIRAYpST0o1NhOCs9jOjz/84buffvLR1/+Ny6+VSj9jQSMsC3BIW9PBRugEa5PJAg0ApFmd3DT2MTNYKK+fFYcT8xpQ6LjrF6NSnAwWzAl8LVc3c4CffNyDWeFRRC7H5VF4Lj+leJvAN4om1mb50OSwgiLnOThnO3zMDBaah+JksGBK99fsLGszU0tnHVMq/YL2ISWmCcnhs2MvZHqSWcJYo8hL58Rfv9m2YUNgUbJYKEHNQWVBrMz1KE4GC8ZVoH7xYSwcYB9RbdFF/Rp2UTiNLkypO2+1fku78vn+96nZbukv4ROShyKlKBw4XsZSWUBgBFnNVMH8qgyGIs7C9nd8Zv1xhc1lapEtT1oSLTesN31B68yjipCLRcui8NkoTgbtmIMi5vDv8km+BXFS/Epnrk2d4Tpko+Un+Ak75LoQ1/R5amf2jeJ28SebhyJuhNFib67hXK1TsYWvRllgsCr6edU8c6Y27I6f1ffyrHAHTVlAxaHWIx/st88C1llogbdGPnhGFlz+Lm3kYwfnoThzuLxcOQ9WyAJvC7oVc2qGtKX8PaYFGXDAdE9xibPp8NkozjxyZxTnskIW5F6rfbFauKZqAUD0yQw4lSyIh3RAqe0uecbAvibRIeMsmwXWGNJ9t96FBRiKM4/c2byzuVkpC3xFoM9K/pMod3N6x7IgbcN1yDhLZgEu2C+oalbHsttkbiELSoNVsmBl8z7dKC6ZBXw2yXt7va6rdukl2pz/bWTBihVhRWa0CPqeA680F8WZR8iC/Hn1uaydBd/xIx2z2EujuHQWPHxVKj0r9V/3L/slV35coKKP+E5eDhRrFNdlmSxgbqJRY3cdnaSea3DL292lsnlBQc0VcUBZMGJ8mC2b/lfQjTsuwgRu/VTABIvp4hrXuzZspMKPVoxnQYGKsC7LZoGr8nkO83DRtuOLc3/G0s8rQ6PpSmU3eD2wHyMYseUiDmjwf9W8Fw7VJWtXi0KN4rrMXglsHCazYlcPlzaO/bgEfo5nwWy898mITTccdpou5lB1Yzjk0xuuPlGXCrUI67JsFgwd7IBds6WaE2z9OsKKk8flf5afdkQuFtE46CywCkw1NhfcNouaQx5pjnKCIoFCjeK6IAvKYDAY3CIBD+7K/WdTy5MqpeMkvr3izEdxPcwCqZJHkUBOo0jluHWuzGdGLHSjfMRHgvp9yHd9d3NbKs94yk8p5X0qDT5nrkBx5qO4OSjSTJgFMK6Dq9JNH43MKgt2LEvu0zWzuGN50DXCvy2xh4qwUhYY20zU7Eax79DUWrZvZV7DXrIg96GmafWyLOg/o1PuHj5+0l/p7UHL8Tv0vTy7z4Itk5uaPC4vVx9rm2ROFuzBFqycBQVGGKbIrX05jeJ2WSYL1HbNRnFWYgUDdA+zYA8VYRn8tfJemFxCfFWSO7KKsxK5XvleeorLwCvtxPANuS4MvENOgTInkSjOSuRmwV5ahGXglfLZT9BztVabcz9cO3K6Tbw6x5kFuSjOSuSO0+ylUQQOrtcAPRGWMhLxbKq3qIudjeKsRG4W7KVRJOh+OeTAqxuHLuPtDbJgXB11sbNRnJVYZrRObD8LLi+XGTPZNHO8qz1UhH3kQH4WFL6nmI8iTaK9OSjSFsnNgkItgpKdgyJNor05KNIWye1o7TYLrJm31Sp5XwCblXYlb87qppmTBQVsgSU6F0WahLscnZ26TQGzvPD3eeYctEFys6BQo8g0c1yTDmvDuY7575xjbDDGDy3eGNzlr9i17G4GNvlMup8IwxgzDtog428tWBemuXXeRNo5Z98eYeCFubpm+M3MRzvIYFz7ysAYS2T+dpjWg4Uo2Tko0iTa22r5lXOtDthvQ5H2wXSjuARKdg6KNIn2Al760LlmUnOIIu2D6RZhCZTsHBRpEu3NQZH2QcgCZEABW3Ba3PsMIKgKix/dOOUv5UPgvqOH79fhj0jUcaKLWA/JOk50DeshWceJrgG899yWa8H/L7k4CVcsuf7CL1fylV/hhJvppzaJZB0ndgXk6VPLAeXDZ28/52uNcN0vrt88v3iBfwz/4uIrXvbnb6+v32MOXHxpx0rWcWJXwCK+sBzApfFK33KdnosPXl5QCZQDXz69vnhzwRdeXb+5/vLt9VfXnz+/fmqHS9ZxYldw8dVXlgOf4+KvuUrRhdcEbLOg3z59R0v5cCGjBAs4mRwgyAFc8mco7nde2vvNLj64/uAl/q5fvHjz4sXndtkv3+fnxfVLLvn09MXT9+xQyTpO7ArWRbKOE13DekjWkaKLWIc/JFGBrbDnN+XtF+fcII7d/4nDqwq6ZzwrOX+74b+ywhtY9sxUQjUamI/izeT/3Kq0hvWh3WNR0BZQQvJQLLF6OiQmH8Wbwbdanc6wyntTVINlXxG4OkpIHool0oVBuv4xMXwghSM2qQPan/J3tWPTSHweiiXSHHCtYbs1hIrajZAERevbrBnLDe3Ixw6Y5se4z7nYPzyjc2hfDuX0pTErYaLzUSwxWhakjQsctqKoEbVcg89OeqQDfVz9IzdazswWcuOqVf5bdxBr9pjV7Kv6ddtF7R9yRTfaAQv4kfbPZJU3rGQxyfko1ggF1/1luLNGq+YTZ2gEfuBu7/qOmmDxeb+47bpnvCL+xa7a5GNmoxvIkzDccJ2McOMXFWUae0GCtlfCC+biea2hLWbl9S6p3YolRjpgBdl1w1qVj+wrLMmBh/5lEdxUDsR1aAlnyva4PBsnkMbdvHWySr9i4aTOLJtEsaZx6cubVsKkopSg03WbHRDHVFj/ZHD2fJe/xE8LBMgnRPAX1Yo0DTjHEtqcAfuHC+oMW7FruKZ/PnT6gv66D56HYm4Kk+lg1Xhjlwu0MZm0QD4HtJqf55upDsxGMhN+24vvpY8XQ7V6rQozbJRp4yjUY0mBdg6HyLcMv6rIm8HLhGlHDtiTb3ZaV5N1Uyxw+c20LUAMxGES/e+ECR24vPxthkZRBVeOMvevl/OP10J1xicO/xz+foMhKT4pLBccOoY/ZDOYQCgnztUzbdVptQ6nYolsDrSiJpOF2Kg3SqCiJei9DYjiVSq2ulXX5XjzUfr4w3c//eTf++jrULEJFWAyrCBs8k6Wn9EJlmT+PBXJzEOxRFILmFXNM1skCRdfbVVtVVDEnm0HqsOoXm11z2EC+ZNhow3Fs+wiDEvgM9lczY4oiMx8f+88lsoBmwzUGjZVMqNqp1gjfCh1oB43Oi7mI/CoOqroag0zMNRFEMclXfxLq209S55gPAcSfoqh81C8FVgmB2o1aL1lNZrguOk67I0QxRILLeHMHCCWsbJ+cKEM0xvFy2I7CdLjJ98BBbV+nyKtwMeXc+eUmVhvotBUU+9oE3HKWXYgk7qZzK4FEA4V40Wo2TQvTyjeONrHhPHqO5Um0wd+QRFW4huXaJTyMcFchgiJ4oeL6lHEFS5sxxwdGCKfhh00H4pJFC0DQ6FeHZQmzJnytVY9G7lRijfBn7d958oByz2ivauylB3AZTTMpJsO4NMbholzpj0jRIFjY6qTlmeuR9SCaDidvH5eEbbOE69T8ab4LR6If7YaqG8Lfk278pkxR2Lelz/IkjHC2ypcvl8PYl4OnNF3nMyBKRiKC497zWq96Ry9Y6sFiQrMKVZFSPhTCt44kp+HYonxWlBdUgcyjC58dJTizeKPc3+y8J7CFqDI4yTB8POgT118+N/zjklRrBEKBqgFdVbusQmSuW1BLoo3m5/GaeytrPq9EBOJBJ1b3ZHBzeQAPob20n+SPSYfxRLFW8NcFC8PXE6v9e/qx2JMJBoP9EHxrdJWMAw3C61bS/rz2WPyUaxlWVQLplG8XGANtbUMJhLeWqvZaNR6ctbzUqFjVmKVxHh0snwUb0OYSGSarXEEhc/qgIfVQ5s6ZiWmlHyS1bNos+jaxhkFo1FixnDVbKJjVmJhDizku/reEnZlLGZjONQyXRaMHfDJbNzJd2N0zBiLnt5fWMQLI6y+su9K2JXZ1fNr1PWwYIRweBP8d/1PHZMlf1n4Ef7YPBYqyadLnGIdLBVwOm1QBc3eeA5MoGOyXF5yoGYOq7eGk6y+SM1KWCqca1RRAxyH9C1VSjWypBa3mtFqTtYkOjiHxbVgFzkwySg4rtfq8WjMslAOLNSBhexGB4AGFnyqLLhei+osfvV9iuVAtmc0i8PQgQjdOleLunANx2rBJDpmJRbmwEK2/BS2pYKOkHNVDvNM5gBCpABAx6yEasFZq4FOHiwtnW8L8Z9L6MCKOXB7p40lsVTg0tkJNCxV2RwYdTaL5YBkmWg37MauU/VjRBK7uC1YLQcelEqr3QnzyZggmwOZDFhHB5Cz5lpo/RSuGWrhG88BqFSxe4FbxC404l1f+B28zWg54GI/9LHpWuAGgwPLAa8DvOZhq823VzMHEFBp+Te2KdocVrQDB0fSFvCWWrfVM7OajP6TjVvCzbBBT/zgW8PZbDAHFvqEJ68DOc3NiMVtwQoLBW2Myw12SBfqwBZyYP3kfyf3JQdF0KXmsLgWLJ0Dj0u3+Ov3+5f/BH6V4RsWmylGdmkHFrJ0DtwOkAPOveJJXen22VX5trBr8B19b4CFSr4RHbDMNEej5c4i12py1ol3vZbJZMKY+ShSERbmwEKWzYGe69WadtnIgmGr2nGuvaTTRRgzH0UqwsIi3pwOeOyiOaqjN8xmUz8ol3G+wc0N86lcvlWwwZidOOaNM8tE6BCFmRatlQM441I3pPNZOgdsUmPmdcrofNncA8UBz8plZ+uuu2dc+2/MUDJm1bneMKL/ymxAXzZqtWt271qR9sPSORBzWk9sb2/krUPOQ5rIAZauw3WjmXjkt1IYs4Gyx1Wj9x7FNSjSMOq2vRIo0n5YZlVmJrJO/XdD/3SF9cX8i4XHc6Dv3JVlBFGwwZg4sNeD5ruWf+8xLt8b0+PIAZueZnc4UJvPKud16MFEDsxEc6YYk9k3jHh/P4IysDKgNqx0L34rLJ0DIp1yIbyTiL+PcbH449eHH/I//979A96FVOQc7Cz7YoUciHo2omXNARqDM3bJF+uA9//skFwsyr5YOgeGsNrmAfj5zVBhm/O+ZOrtEDEaMx6hSPth6RyocQoiNzTpJe76y1CcBdgh4gBzAAmCIzPol55Z0FSPxycTFgDpdlWvCagMS9UCwZgJB5gDZVdGx2cwePIaTlR/+g0aSudsFGcBimwwAw4sB/quj1xw/btn7smg9CpHBwCasKG1gWYBPIqzAEUW49e/WMYz9EhvoahMpII2B5cOZQ6UyuU+TvBoUOrPyQE49p1KtZdtExVnAYqcgyLlYS9jKrvBDT39jZO7eGoGpdPXYDj1VGSF7CQHBoPywD2Gm43+hoI2yDI5MAIZ8IAvfILFXCspK44RPbx9fIvif/CMLxfcOCvlwB16fk/wt+Lt0yk2OEq2PivlwKZYMQfKfKXmI/y5gs/xzmUvObDissW49Ne3VL2trHpwDDlQflIqXT151L+Cz6KgDXIMOXCLxrD05FkZ7toWlOBf0PdOWTEHtsteEnPkObCBm37HngPrL2+/F+OTx16K4+hyQN77bBRnJUIOhBwIOXBQOfAH9D0PXetsFGcllhme3RnLNO66VmBjo8ltE3/jQHFW4ihzQHe9OcZXj9x5r9XWaJ/irMRx6gDv97VclxnB5wYtL4jirMRx5gCul08HDrkOCXIAIX4ugeKsxLHmQM+1XLvKBWzOkQNV/LpfOSAqZgz96h32oTgrscy0jZ2xag5MoTgrcXg54Ep3pXL5ySsORD604KkpMLkozkocWg70S65/1R8MOP+ldPdq+t6hrnU2irMSh5gDts0ceH3jXk3eO9S1zkZxVuIQa4EtKMmvBzYPbvzeoa51NoqzEkdnCTfOIT3as8mp/stzUA837eXlx4eVA/reKQeVA3thozkgi5yHYk2gnXko1vYIObDRR/6V6DwUawLtzEOxtkfIgQPJAfjALm7VbbH3iEs1qsN/f3KAAz1xremiqOMacTzkMzB+PQjF2h4HkwNRiw+rY5NThW2uq1cCxdoeW8gBu5AarmIYRVx+05Z8J4o1ge1CofNN4T2uhhtxsmiTk6eJYm2Pr+t7I1iSubz3sFexp3hw7TGH8dJxzGm3z3aZHYjwXfN2gAuDpzqwVV9xhRyw9dnnYkmmBtuffx0DJ77b6/15MYqX4VMpTi7LnHc9dHkbwZJ8hkKvIwu4EL/pQFxNF7z78Rwd8DSsvpxL/z2IMeOgQ8WSbM8wMgdw9biizujxB1PoaWyX0ejajZAoStYKJYp1JCjReSjWBNoJfD7RJNiGR7GOBCU6D8WaQDsBH3njI4D3OQfoC/aiYf1MIUCxjgQlOg/FmkA7gc8BPTKUoFhHghKdh2JNoJ15KNaRoETnoVgTaGceinUkKNF5KNYE2pmHYgUCgcBe2MZzNIFjImhAIGhBYKQBv9u/wH3//FUlKLA7pAUqgQPApyewM1yy3qAKYBHXn2nj4uLza35eX3xwcfHCAi4uXj7Fx2dfYOMrfLx9OuKCH/43412/4SewEEMBwKcnsDO+n68DT6+vr5+jvFDU719ff3HxFr9Y7tdPL17g6/n18+cIvb5A8b387AV+WTk+x1Ee/npz/fLinZfYuH6B+Cbp4ovr6zcodESkrPcvnr9/8flTi+3x6QnsjO/PbAu+8hX1KXXgC3xcv4cCw/8vrdxMOy7evPfy+quL9xjzvet3oAPX70A7xnRAG9fXH9jm82tW+JcXTz+zwHeeQ/DT66+gEviy8xo+PYGdMfIJVQDg+fXn2jIdQPGhAn9x/RYl+TkMwAcsLlbpN7QC0AVU9eewDAhCab7M6sBzAAPw/Plb6cA7H7yEBoHrz/hJO0DFuH4edGCvzPQJ37My8Trw8ppKYYXKRuD6Hf/99rOLL95efH7xAZwBVmfowPPrtzQRwjsJJgJfX1pbwDaFvyTLpPI/dSrBpyewM2bYgXm8uP7sKys5mIDPLz4zjbh+x2z5m+u3Fy+9r8fS5VfKxfUHsP3Qi7fXL99h8/EGMuBMsvWgd2lKIZSgwO4IfcP7zqhveDBjRL/XpyewM0Z9w8C9ZdQ3DBTCllu+678q/aVqq3X2X/JLvALbeSQEDViPK+TgoMxnRaIG/7fsLRLbWN11m2w9ud93MDbwO9b4WoSmY62DJK2O+2m+YKLlhnX+t7myQDuPgh0kdv1TLJSgclwHSVqRP+6aKPa6q6joXeTi4XAYuz+uCMeBMlhZUQwvYg6KVwQcvdAQKOo6SNIq/Pt24GhF+Z7eNZLwpxTt4IGt9RtKeDG8iByoZIo3wjVgPKvOL7zl2nzopFWzt+f6/RlwdKoDj9wTvsUKIh85/heKug6StCy/9ls6LrbHJdJXyYP0Gn7r1xT9oBn1DZXqYngRc1C8BOdaTVdt40uvp8dWzzen/m01GXB02hY8LvcZ+abkHg/4X8GKug6StBR/XscQ6IA+BJcOy17Dn9dBq9N37GGkF78t4Hb5DaW4GF5EDjyB4glHC3DG6mJLEBpQhh4sgWs1Mm8lJ15IwmPoQMnd3OkohSoqJPNBZj7ZyuXs+CggX+XFF6NFrhHx+Tb8tYauCgPerrZqK78bBfyCDvDEFRR51Krb6QBXz+PFabfnF3Toipi678C9HJ1ByS2GZMyGhkbxEuBHI6uafGc2CgomAaXFTcu/CXB0mg1Xt3yRXd/9l/mGhWf48MGKmuiAeWUkbrm269ob7VrunMKHrm5a0ZFyjN7W7QUt4PcpcgrVuRnrle9i+hrA75OIVXiQrNy1bZTBSiqJ4ewaqEV+w+lBeWDWO+LqoRm8iAl+6dv+O08H6Eu3UDAAxX/uXEVWwcdJ8ELmo6heB1DNIczosIyGCGx1zrji6ZDPunrHg6+LzJaWJM3hpxRzjLHCFxO+4YifkqAluXOv/FXo99aYYQeQZbY6ArZQ2i1XcxX+hOcTRahR9OI6yE9UshGSMQ4f+KYe8BSKVwQcvTAXFNVSHFdR7jWaAOhWC/+pv/hxxqfjGXrWa7Wh5VVG0GFAkvL4aUWbwswJrBizJY4rTf97OOYkpvy0xB0Y03YA1cfrAOxAjbU1qvqfvgK7hv1cRge+8U1tK944ST41Z1WmETg67RdM8e7l1357LRVLkLxZ/IyizMTqBnOFJY8qQ9egkcmaaX5GYg+GGX3DIawnHSeWOAyov7RUB9CA17y3ZSGGFzFBUv4TdsAqn6+BTddFlYT/NLYYwwQ4GkmkUcnnf6e4SKajK+C9AWAWP3Xb8QOdEdsBl9BlnUJLapa/cXn5Pdv4DcWYjV0Ic8VDjRjiz/bl8BtbXW/D0rwSM/qGzBc0qCoXf2VUDFKzS25Vz2AeMrXXi5iD4hETSB1AeUVQA18++EQLhCrUhZrB107B0XPagncvucyOoppw+AMwUex51F2l4+JeZaQDTLI/u7UUxO8ApdLXv/7RR//KJ9/99NN33/3ww48//gOWo9+1s/yqIk3jk4oPph6NAf0NdncYOpNfNYHbo5AOTLcFq+NF5JBvB/jlt5rwOVgwMKKuimq0in4BRcXB5zBcMVuZc2eLA+FHfD7SAZ7RgBnz+B1AklLevfw/asv464q3CEv65JBhwl+XsC1SQAdGVUypJKjs5rh76P7xvcPIW5pYhKAaEb/bkIzZTPQLJALFzqIwk4PmoOpQZb2PgbP4pZ08OHqOHfAoqi9i9C44OtDlCagDqU1r2lWhE0Jn0WPhRJLm8iuKm4G2H3A59XMJG7NiKb8iIVum0JJGU3ZgNN6BPgHtPz+8P2Af6BW4Wn1sKGwlHVgVL2Q+iroOkrSIX1T0FOQJ7b8veHxWejPMwC/q8C3zTTZfX9OPpZlhB9BPRx8Qyo1NgFbURahLSc2purg7bEVnLjOeJxmzmWgLRkS0AvO9JyIJc1FUn2CCwog5VoBLQdojN+qqcSd8kGGrOnFiSVqCX/+RDiF2NiAdgJFptFttedCeH/26DtwBUIKVVQBM2QGitsDRwOEC69wc2YHYVeO4nb1ML2IOipclih38P65SSevv0a4xcLTc1nwUFamsI41wC+FfWIfG7udQLA02sdPUu/Q7/BEJkrQkP6ajIAbdGvrMVRoD+oLNqqumowM/pgN2xTcLqMCMvqFlk6A2sG1glvmQCB3Dio0jKjrxInLIswPsgxrozVnAbG8aR6+gAw26LzFvSfqVM1nULmObeT5qNbbGh3EkaXn+rg5MkB+b8WZbf1dR12KhEVyb/dw3JKj8UCcCi2AhuTqwQluAio4ibqCDYAOBQ+gDK/9YW+Dq9UW3ppbjW5mhgyblZS7gN76lSHsFOcfM45e7fX07Oyv3ct/QA0vds9GmhW3BQhR1HSRpZf5JHU/tA97i/JPauQmQfSbT4FLXPevp+goTwTXP5hoP0Cah7ndrfDEaLDfVNOsaATtBqhcKLYZkzCanXxANe70OLWenVfE5N7tXjaNnKe8YiroOklSEP4nD4UR3OPII/qSCNwelGnafi00n/TF00NDsVdlv0+5pHXA1dLjxr84mkjowpjGji966HVjYmq+PkrEOklSUP2gWwP1B/dwgWTtAR5wV2UwOqKNeo1RHN8AndaDF1hbRTQd8QzmmBHaCXdiBhbV4IQduB4z+3U/+pDY3C6qQkghQgJy0UkWjU+FIWgV9kMlC1eYy2AnA+kW0dXZgSTbBdlYdH9MBgxbH3vM4DQ/Qpmo83xHgN81ywHMdpmuF2wmgAVvP4PWVbANJ/I6+t8l2dADZpxIDKMs4O5CObZiF1I/iAdr0BW86gI2IN+RIK5oa21v8vOFGX39RjPW16PJyB0qwHR0AKjFW5WFsxt+Klx0rG2UZr9jaHOkAvmqo/77fMu4UmnRowIIM/h+s/fYHnkDnLIIXsh4cRt++EmzfDsAL9LdvEh3QMNuoY8ADtLkMdoKFVex7zD5tF4SGRucsAo5e1w58+um7H3+6/dd8bt8OoOzrdhfU7tzWoAONjk2VThiPbaqC5l83gmPrRGQx6WBuBn/7008vP10z+9bXgfX56ENtbJPt24GKn3+XHY8ehwdok6DMXRc64O/zQwesZUixEyxRxda+Mp5C5yyCJKzHEesAqpBywvBvwBoO4x43+Jcd9OYB2iQu7rqoXqvhA54Ap2ghRPuInQAsyuCNXJnOWQQcvX6/4ER0IG7UanG7GttgYbNpg+ywDXxRmocHaHMZ7ATQgEUZfAB2YH0d+Pf+X9rYJtvRAWSfcgJdwYjvA+twoL0eRefNjncH88cJF2AnQPZuXQeIzlkEHL1+W/DJu9rYPAPzzPkkyHZ0ACgnaPorrlm12RwuimPfP8i28GOxR7AJ4Ky6KUw6NGDrbcG4HejxmS92aC3j7I5het/QJ5Oj2ileyJpsUQdeP3MDV3blXdiBnvcGR7f+ppxDHqDNFPYhQdp7GGEnWKKKrX1lNDQ6Z1K+HLlqunPzUVynxcmq7OxonuqUDixO5CK2qAMl097t6cAGYP7d+s3ZLMrgTeuARz/Z0cU2HFfD9LqW2AOPF7ImW9WBAeDTr1uzA1tmB3aAp1B5thoo/p49Ctpybc72QnHDrWnUYN7qNqXcP32csQSSsB7b1IER29GB//6CtZrW/DK2bgeIyrNV6/lnvVpVv4IPdMA3UxaOb/Z1QPLeXICj1+8XHLEOrEiBREAZtJXHRu1AAXB00IHlKZCI0DfcHMerA1tvC9a3A+uzgztGx6sDi6vY2ldGQ6PyLAKOXt8ObF8HfsAbrHvXgp9lIpKH/pdn63ZgfR1Ynx3YASqBNvcIlGBlFdiBHVi/LThAO9Af3Azcwyv0sNDHco/dwLl/6xKbpddcv/gJwjxaNGt3/OzqVmAHdoCoPIuAo9fvF2xKB5Smlh9955ITYOh7tfwRN2z4e2gd3nR6D5CATSCJhZCIMXbUN1yPA9SBjotcpdUxHeA9mVbtrGPrJlA5OM+vVXdN1/CjHUQCNoEkFkIixthR33A9DqctUE62zodnKPxqwyZqcjIXp/wP+YQ+daDnXPOcz+XaMwAeCRjjWalcLt2W7h5i20abcaFXt9gWPtYUkghsjdwZ94KQBA294WtsGrpEjLGjvuG+2bgdWBkJyEL9IaU7f/+5f/Pkgbt9cuPvQAxyX4IgiVC1dpXP7rs45jPWBqeS81k0V3eccxw5v2Lr6AaMRIyxuIAOwA6sz8Z1IK77dQ04d5tYo8BvBim8du7Sm/YSMIa98aSPQug7OJWlO3drMm74A4qwSAdADadpo+HhbFFi0wpiPx5f7VIHuC4Cb8sJiZhgkRachA68+4k21kQ5yZWNasz3Hm9+E1/wvCeOj3N8MtDWxxISMMYVi/oKf25QfoXKX3Kvb/vuDsXPvQt14EwzyzuuzbRwLQ+p5LA25AOwZgfO4Zek8wwkYoxFGhB0YAzlJO2wf8q4izb/HBY41QEuvt7wOjBcoAPGa32Xnuh7IZII0PNwFS7Dh7JWCHSAb9SJzqr1Vq3K8Gp2iS+JmCDYgRVQTqJbULE62EVTy0yHQnD5rhhFQGes4Xq2/CXUwKIDCSjIx5eX/5w200T4VojAD/BzcJAAnFTrcOLcEZceaFVSQyARY+ygb3gIbNwOrIwEZPg6mPr6CEx9ffLJ/4FjwH69zHUSMVsHjqJvuD4b1wHHvmG7U/GumFlib4/9b1hjtgRolxlGJKAgH2fTL4mz4JKBPjU5SMQYO+gbHgKb1wGPTYREgfsg24MNfqDHxr7aaPqnBGwCSZwGPiDaB/xlByjHkYgx7q9PeDf2nfxagHIS5Rz7N2NwQiR64AipVhP/WxoBM+CGo6d6JGATSOI0BXXgXvmEfBsWKQ9uOQZzmzwa4Eq3ftfCOzzKSStirlLtN7AZW/m31VujP+Z7aaYPRAI2gSROE3FJRjqnM4cODYkY437ZAdfne6JcyevAoP+AvfNHzj28KT94VirnDc6mKCcLIAGbQBKnsY6B9RAUMI1ETHAv7MCHfiUNviaMI3M39lo8e1mQc+ygD8ropxfRATeMbUVnLg3U9ms42ytAppCATSCJhZCIMVboG5bLN2V3WzalGbwelB3+l3bw6rVN4HXgYdnzEBdh6jC4fVUqvS7fmA7w7v8ilJMpbPQjDhCwLYg4SI9WeWL5S0MCNoEkFkIixli+b/gaxpM3MzjA+QzZB+uJenNUOrA+yskUzhhg048t9BPZDlcd13yYQgI2gSQWQiLGWKlv6MoO/rO7dahGqDnu5tl904EpHvP67a9cukTjcuU45HvHfNoPBZruxUU4EmrN592tPwTNKC/W3S49yr1XtqYDWQpk/+YplIhFWjBH6N1u3sC4Ae6PDnzt57WxPCvYAbjN7slrHOBKDx+b2YPF67N3dfjcHx34mHcdVmVpO1AeOFd+xnkOD/FVLmPjwZPyMt70/gk6MIcV+oa3nO7CIsd/uoJXgwfoJ6CzeAQEHZjDSvcN+7c2yc2xmzi4enV7B9fwKFSgmIVclePVgUW2/CCubF22rwN/P+/wH0BeFWoLFhF0YDn+tYNQgdI/9He0sQrBDmyIHxxEThXwfIIdWAmNuBZAArZOIe832IEVUIEWQAK2TiE7cC/mEwYdmMM9mVMadGAOoW+4EirQAkjA1vlbf04by3NPfMJNXYQKtAASsHUKzaC+F3ZgGzrQSKYRDzV7lPNJbY5p1GpzX+ZRz4PWgWAHVkIF6vFFzDJv+jcqu44e/7IdR6MD98UObAgVqD1Cwv+cNeaGTT7uH/Mx7+QpZNOPzKu2D9wO3It+wcbtAOs4/vNBYzfk0yZ8eTt0wL/KneXfpkr41oJIwNYpoAP3pG+4cR3oxNSBeIjPTqVVdef2wn2+TpLNAXWDT3xzeW4hAVvnL/4NbSzPPekbblwHVkYCtk6BFVfum0+YToH0G6MVIJZ77lAFWgAJ2DqFVt25R3bA5kGBUvl1uezK5dIrd+cXhBELnztUgRZAArZOsAN5jOvAQ+eXf+OUONdHHgy4AtCjm8XPHapACyABWyfYgTwm7IAb2LNmaBluOB/yMfY59wqfi547VIEWQAK2TiE7cL/6Bf65KD40+czdlm6u+Nyce9Xnxt0DLjU8/7lDFWgBJGDrFHhTw33oG377k08uP/mkyPjZEVJIB+5BW/ARh/i0feoU0IH74RNCCbR18hR6a8+98AmLTLI7ToIdCByuHZBzXAzJWA4dUwzJOGYKvOV/R31D5XExJGM5dEwxJOOYKaADO+obKo+LIRnLoWOKIRnHTCEdONW2gGtIG91WK661Wu7Mgjm5QzS5jlhttIokkIxjplBbsIhj1YFksU4Xt3oOWmDr9nGaj71kgItIJqQrOkrGMVNAB07XJ3RcSZ6LhvF9Y8nyoa3Y9fycP68hmfInknHMHIcd4CQ7vWdprAT0I7J9mZl4a+hAzFlecRT5Ob/OxbXaSAcqURSdcXXf6KTswNc/1sYq7NgOpAv6+umXXOKx4jdJNHS1rt8cLbwsGcuhY8za+++Yq8rbGVqtHvwBW2Oee+sIabtqOufvnurAzvuG1hpbGUTVYY1lXq3jp+AsPXsvz1nGd/MifrjcmL+OgR8oZy/u6M0CrS4rfKoDfBcUySwt60UseabDpIAOLO4bbgTlMejSMcNft9WkGa5w9mXyJgjqAN/HhRpar6cTs03Cjy9530fHFMMkLHumk2Fx33AjKI850xbVMIriHl8IxEo/dFCJjA5ELq67Xo2GO0EyUDr6noeOGcd1+JYBaJ4aIKA940jGcmc6GXaiAdmSUZ3vNdEqwFmDDmiHDDbUoslFn3vp3HzJWA4dMwZK3E6KBsBskH82ZAaSce/YrR0ogmQsh47JQt8v1QELGmneOJJxz9i5HSiAZCyHjhmDPod0oFqJK67aqgQdyHL6diCjA3wgjNSHDe0bQzLuGYv7hhtBeVwMyVgOHVMMybhn7LxvWADJWA4dUwzJuGfsum9YBMlYDh1TDMm4Z9wLn3BpJOPesSMtCBwsQQMCQQsCruTQPXRwDcPXff0KBAKBQCAQCATAf3BxEPxuJSewc/6qimDvBB3YF7+pEtg/SlBg1yj/DwAlKLBrlP8HgBIU2DXK/0V88Y42wPVn/Lh+/+Lig5c+5OIp/67x8eZzbo14ye2Xfhs7vrzWAV/4IPCFDwBKUGDXKP/HeHuN0nznGoX24vq9i4v3UHDvXL+4NlDu9nX9zps3F19df2mB19dfXly8vP4cZYwNqEfCU24/9ds6EryA3IQX/pRACQrsGuV/FpYMKzVK37bs7z0UG75Qya/fef4VVMDK7h18P3/6NjnK4I8vrt+5eEljcYGYT6lM12+gRtcfoN7jE7LeXrzEYU+DCuwf5X/CUxTJO2YFfMm/w49r1O6nVIHP8OvN9efX15/5wkbk66efoWgZ6zl/4A+HfsCS/QClzmCqAGK8f3H9xTvXX713zcYAVuCDF9cvICaowN5R/ntgqWnIrfT58QEK74sLhHmTjv/Xzz94+tbsAf5eojgRA0ph0UVq8LmNj6fXX7LVv3gK60FePH//BTSDjciXQQX2j/KfoOToswGWHVwA1Hj4fh9YQZoKPH+Ouo7CY6sAVwAmwcz89edfYnfGCjynuWdzwJ/Yb0Bh3nz+9OJL6AEtCj75P6jA3lH+k+s31qhzi+X4FnX0M2yyLXhBFWBpoaC/hIH/7Pr9l/QV3poKwLh/jogCuvQcunKNj+f0LBHjOcr6DTsH8DHNIAQVOCCU/wbMAKoyMBVA8aDZRvGyP0gVQC8Q37Td77Nf+DkbCjTw10/fsnln0ZrFt5Ze0N8zOwGPIFUS9gggF2piToNQggK7Rvkv5KFLBfiFauyLnq6gqcJ7MObvv//+xYuX7DhCCVD0aBBSGE8i0Gpg//VTeJD89RlbCnYroCRfvrl+ga+gAntH+T/Cxm58gaGWjrZRjm8u4MSjvl9/9v71BbuFX8FO0FuAkly/84L4L7X9BPu9DWBZv31z/c7bp9ClL6kCF28/v3j5MqjA/lH+LwLlCOW4RrFbN/Gzl9dvrYK/wRYaBXkRVskvvjB1MD7/jHoEp+LlO1AYdjegDPAj2adg/OvrxP0IKrA3lP8rkBbaZlGCArtG+X8AKEGBXRPmC9x7DmbW0L+uBAV2zh9SEeyZoAGBQOBY+dZPf0tbgfvE3SN+9gel0v+302r9p+6wbdjOwL3APXTO3Tz4n3CJXefiP1uyhc3C07r3ib7rD/6rruUaEf+3fstKP6jA/eHKvXLu/1LlcrcGNv5n9rbsQJa8lQ2W/1qIVoxaAwlambu+rXMbufqQ/xNd0N7AzlA5roEErYz7X1ShAj2+HwsqMIQKQNiPggrsHF+M6yBBq/J/c2d11+zCCoiW43vS3C9o/zGhnCiGZOwPpWMNJGg1frJVr7ueq/Yc36/k330lTWj9pOIcD0x9YSQjH8UrhETMRVHXQIJW4S/p0ORVKlHmnUfkLynesaBkF0My8lG8lGarGSV519VrpYbIwsrYO8wMiZjkzv4LRV0DCVqBX9GR+fyKYh4JSnUxJCMfxRtx5lpsP+v22iJ7ewzfUoUdendEFonwuAeD8o1zt9h6VXIPFboHFfgpHYdU97KvvQMx34vq+SnFPgqU5mJIRj6KNwKFH7lWE5/wnWrmQUEn/HsDJpEIceWu+qz/vslNPG9FXQMJWpI/qaNafANfJR5LdQUh2gR/UkcUoWw80a+toxQXQzLyUbyEOrLsnAOqjWRIBa5UtTakCmTzz5AIj7vjWpnucckNHvO/ghV1DSRoOX5aBxEr/YwKVNz5uTvXD/DTOqYAjncb3M7uNyjBxZCMfBRP9BzcaOeqZ41mC0a0zTeI9vgeQRfFLvu6QkMiPFdXUIGbuwGy5xH/K1hRUSuHtCtwLppeDH+QVgctDVsbKy1z3IbdSp1RPBK0DL+qQwi1l5aA12GcObRtXb5qa8Sv6riVcQNwmiqATjQ+rQ/FLPScsU9NX2DivcITKvAEKjBwUAGPghUV8mhKhnw5pYEWhwpQd5XzatSK21GTbXcV2gY9xHZqcSRoMf8fHSDiGJrbqjb9+ZyLK9Q0NHFZfkbHroiXeJIq4Kui8+8MRbcav+BBRWgZFrqDt7QC+AcLCSvQ76tToKgQWh+6Bo1M3Z3XHExLteuqnTYbHQivxl0UOxwRnhaf3VQHvJzF/IbiJ0ByxNcwZjBjM85v6OiV8BqwOx1QWoshGfko3ghmWdu1UBk7KJoqGgWY5hrq/yIVcK/xz93ewE165lJfSVEh2KzAsNKBTOfadT9sF7luDS0Dq6ftHg6hGPyi9nm8nEX8KcUeAZM/bNXjsXdezVCBVutPScIqPOzv9JajUmogX6xd61G7+d+b5mwDR1OaIhn5KN4I5nzTNVk54Rqi2ppldq7LJnsCifDc3g2eoCt4hc3s7ThFhWDdrRlWhm24nE2UfoPdz5ZrtKkMldjF1Vocd6Bstey7KyVoLv+84mZoI+0k++L1mSrQav3zkrI89Hqh5vq1dZROg6VOIpo4I327bGRbS6nAd/UNFG+EZT0qaqXTgg/g+FrJhquiWEjGnSYSMRdFhRrBCsD2J8ltuXN+UQXgo/krQyQbxsOl8M6ekKA5fOu3FHURlck+jfitFSeWPbt5ZheRjoBtFyUToLGkV45C7jVY4g20dviJqgMSg0Bsy5CMCS4vR0qgeCO8AtXNG5BLoG8YH/tOkYi5KGqrG9MXdF1aaPykKpy7ah3XEzlWef5vtrv0A9gxzdRXCcrnxxRxHX5Msg4TJRLE6OSgmkAFaALYWLMBcHVrG1zE8TwYBfhVPjqRjAn4NnApgeIVwkuYj6K22h3arTP3H+ISYFKqSbejFrs2+27W6HTRd+f4DTbTNlyC8vgHFW0K64MOIdJqSJz2QmfzD0reIaIkAo3Q0dRbQ3COP3R8BFTAUQVgHiy2YaU9mx9MSF8dE5DLu/apqAY6fhO3bnT/BtowaWFSTEwe/8CPFGsaUyx7+brVEKoA+py5KtD60T8gmYeHUkj8i329CvTabJ8b6EL7i0LRd1wdJmBcBWYyUoA8FUgKJL9giETkcHlJJVDUNfDSZvMLijMLvok9qlMFWPeRJ00ohJrL2RzsVAKlj3CQZqQCHW/fUiuAJqGBNhYhPjaRjAlGCjAmHdUFn5DO+oM2GSaZUvORiBxoad4dya+gPPiHzZ6/WWP+Riapo20bwpk3NPQT+v5FxZhNagUMOh9xDDXQ7pn8oiQfGEodceyrs5B4WXGNg2v20/ZFTY6+dZxshUcy8lE8MlIB2Go7DzpUvRwf2jABLOl8PlTUVrdeh+fPLoAHLRYbgSSpw5EuD3u8u+Onehh2ljEuL/+MfS9SAX7EyQkdFLDR4Hj3HH5Ryd4KluZCKHUArkCvh2LvwqZ1WyMVEJGN7rt4mOlTF1MBfjqYHMst2oIO8hOOPDcZlCAROeCiP0zls05CMo6nVsHZ69oIfiKQX4nsSj2O2xkr8PHHP/Hhh++++298+uknn3z00fe+/nXmp/c05jUEqC4AqnXmXU/0PsHYBUyw3YZgIyrQNNOZ5JrvqvPK2Nah5WPgOQ1e2/YbkpGP4hHVFxYUuxo6T6XHOQTo07OhacGVT5GIHKgAGRWI4KEzvV1obw/ysYnGRtdi47j+9Ppi2XlKpW9+/e989NEnn3z66bvv/vDDf+njj6kCl79kJ5njDrozfHRidkJd21pMC+XHTLbtDm5EBQogGfkoHuF0axQTPY1zKwofbCNEtKpdVKN03BZIxFwUlZa+RgcNndYqCqbag62qQqVGe0Uin2XmkaAMUIAf/3lt53YKuzBi0Ll6z49BjXRLu6fYeqfwOFQgbQhQ5Ge+b456zx6VqQB7VwwTEjEXRW0N61EDQmjfedOJX7wFpRJBTfU2CAEyRvNU4Ifa8OQMDSW9z1Hjb0nPpj/DDoaGNqcCw3TQewiTiq+Mg5NM9hshGfkoHhmpQPWcVgC1phpXI87C9SrQcrXmuioQI8k1P/kk0QMj+R5tzLMCkyw9QJzHqgPEhdiQCnDoLy0EF9MdROAQbg6rTVeDxX43kYx8FI+MVADC7L4TvY0mfEBZAXMHUwVcUQVwLP/QK6vxxkOHhY3f2u07APgNw+BZQQVm3iZKpopws9a1ECrgLFa/TVSEzahAnd0+NtjyBUHMIXV8186GbLWxLy7qDq6MRMxFUVNGOpS1Jyh9fSekd3QkaAFTN4sTVUqyatQ51O4RRW4Wr8x34MR+/PEv69eqKKVEF2HXRc8N3UKYBV6UteCc9IW+d/YWuWTko3iFkIi5KOoaSNBCJqeM0F6ypxFb40gLB8OSMZCeQlNGCvAN9mJ+Wz9WRWkFbStsqz0xXLNKFVazB6PKUFxn7xzbIO6kFUwy8lG8QkjEXBQVIJkNtC80YVHki8Lpm3DCdxOmbAoJWszExLGRClim4Ac7tG0/2DGi4MSx1fkmNOBr2l4ZJRZ0O8gm10BW2XXBAUDPiht2jbQBtApD0xQhGfko3jgsiN7YfJuZSMRcFHVkwNhSVdvtKtSA19IenYWGeug6w6Gml46QoGWYnD5Kht4KoPTtRnuHc9MSCk8fLQDMQFEjMFZIyWVBBTgkRO8MilBBZtbh+HDwy/xBxQaSkY/ijePQtaDf0aVIw08ZmEAi5qKorP3DLpKINDco0G5AEO3GSXv4x2GJ6vjMFAlajrFJ5BWzAhoXQECHXmjKGpPIC/DN4kZgspB8QwA3kKPp7bom9ZkvEMc1DoJmsrWYCqAcOu1aXGvDbRdTbSiRiLkoKlOIlEG5XC2CC1OjEYioWbx3RP6ndh42F93sCOSKKpA+SmK3SkwFKNP+oH6ZhmadR0mK8I3CRiBHBWgBcEXVdkYFcNXMvWx5SUY+ijcGi4JNDOT4s42JTJGIuSiqCaUKQG3b7Shqm4Neh1i1YmyrW61qDx/8yyBBS6MHytComApAmsnnJ6xlUj828UBZutLGNr4y+CSTUb8GPRx4NTBrnGiDzkESaEPvY1P8JCMfxRtHucZ825wKRHWqQLcz7EXtRtRj8ZyjhLTbLm54zpvUrLoZJGgF/GOl6QiGvwb9tq8jeKz0+/omlvBJOMaBK2sgx9KpvTHyszvkY8AjJCMfxRsjojHxg0AbVAE0BGi9bP4WCrsbofuCws4Ut2sh7KzVqvP+TooErULycHkex/BwedYMKNnFkIx8FG8M52xaN9ikCnTYhaEK1Fyli76MOzunsdFumTje3xs3AkVUgEtMpHDkMWtZDmKJidePS5yE/vhx6TGMPsq7PNAesdAKLItk5KN44yC/YARYIzenAgnNZmqhExs9RtKJS5CgVUmnErD0UxXY7KQACV2CichSeFA3W8itzPC1l56gwGJIRj6KNw7yizN8uCU2pwIrI0Er8+uaSgB7Y9iPH/269m4IE2pU0dT5kXlfbXC+MadmLLLtxl/X1Yf1Op995GNVfo+x/4aAd/Ngtds22YL9zCNUgVLpH+HhnC3YSUrjH9GejWFSSdfBfHF2iofPYnPacko2MrBYtmVWgIYgy75VIG60YvYqmnDbvW8ZjW7aZJGIuSjqGkhQIf5FHM8ptRUrjX9RoRvEUkhQ6HFcr8E5j22O0nmVT7VmyjUbma0d770OYzS39YhPVdaaY6OiXnqCAoshGfkoXiEkYi6KugYSVIxf+9O0t9EZVOC3fk1hm0RpbJ2xZ14d+iaAn3RrI3eWjnJlIgMbeoWLRRWwETMaggy7dAe3jdKxBhJUlD9rJjZyf1a/N4tPIlQATqzN3DYDbzRi6F16oyUT2UAMGAOzApwEAL3JDl3usiHYNkrHGkhQcayK3erHhlEafT/GBrra7hz9316z6uzx7xHZyIsJViCLBBWnv8VXUiiNUoFuu8Obt1UOq1XdcC0VOB10SWsgQYeJ0uhVoALbXkFvOj53dVflI/qZBj4bOQui+Gke+u0ZbwgCa7PGtL0FqMQS0lGv7PiXkY3szYP3ArExUoFUDYIKbJidqcAcspEnVMA0ADrQTUdfvPR7wif63iY7UIHxSoxS7rFtyIRkI49UoM6eoe6Xjx0/7g6eOJff0cYW2YkK+HK0T3xHLqrF9miWyEbOqABNwUwVWK4h+Ejfx8x3L39WW1tk+yrAe6D4h3pvhY7C7C1WAX5Z0RvDWuae2ZJW4KPtXdnuuLzcgRnYnRVQofPXEg2BjQl3/2N2JGCg8NIXcnm5ATOgUxZCItbhb0AFtm8GdmIFhu6M058TKzBZrJnIS7BcQ/A95J4210CnLIRErAOuYQdmYPsqgDa966LqWS9VAf8xIhN5CZZTAWbez2m7ODplISRiDb736aeXn36aWQZxO+ykIeBcdXzbLH4qxFwVYFcAe2tNW2gBfqHWh0jw0hdAI7ABM6BTFkIi1mN7xZOyfRWocT53XHM9v+AHyt+P96Q6kIkMsJdlX+MgMrXF3qKXYSl38FOrQN/Ur8LolIWQiPU4DRVozhgPHCcTGaA3CKXhVH3D1eOonn3OadlO4SauTKcshESsx2mowGLGI9cjWgo0BL43OcWyQ0NBBZZkNypgz2/wkUjbQLlqLqFnPDJcANiBYQ1diXqX6+3UEKJ9xEtfTFCBJdmBCviWn1M/2MizamtWfEI2MqLX6A/EfiUP6suUCoSGYKPsQgW4+q/j+r9+eMi5KO5ln43LRl5MUIENswsVYCXm/8jVmlyXDZ2Ds8r4atraWgYvfTFBBZZkJyrA8QD0CyKunFCnr89Z1+nTIdnIiwnu4IbZhQoYcWtYrfJ9S1yfywckZCOn1Gz4QD8yhIZgMzB3yQ5UoFttVc+6KMthzInDvlHwd4NEJnKGWt0MxhR7sgIcovSrldkbCbnugwVnVpwZT6xErMcWVaBUeuWe8OUx21cBe5Un+O/YJ7GZg7k9goQa7xDPVIHl2LAK1Kp+QavkGd/kw7AYY2p9+CrwCOl+yFfJbV8FWpnV843sE/7GWOQEV7PM1q8Me2kIfMGz9Wp2hsMq73Vz/YrYVenn+Dbt/LhUAIXvBqX+7U5UYBGzI9dm2oC9qYB90YFBnwZdW45hx3FbD5aaDpwVuJ21iC2qQN8r9VbPsSblZcs6hy2pgG/V0L9tp+2AN1ZamDZBItZjqyrAz4NWgXz24A6mDYGAKUD7pvef+dqP3fYtJGI9tqoC9nbp41SB5YzDRlUASpC8DcZUASpA59C2AcPZQIyvg7ABggrMZg9WgG81QpnzhaEuiri2dQshNiO25xcgbzu+TDZzV1si1mMXxbOlc6QLxG3jayk2qQIVlrm9gqSWqAA6AzYvcmQDbFHDjB2QiPU4YhU4ADapAhrQdGedetIQNH2zwFWH4CDwQUmSWRVJItbj/qjANlKxSRUAFS4TzA3Y/qYtBip6VvFtaiwYu/OxPkEF1mHDKrAyErEeQQXWIajAkgQVmIdKsxASsR5BBdYhqMCSBBWYh0qzEBKxHkEF1iGowJIcgAr8rD38tfaTP5MEFVgKy/z0df374TtMxDf0Y3MEFViKHzD3tb0/aAY2bgSCCiwJMn/fRsDMwOaNQFCB2Tj87/vvfr9/1+//E5eX/H31AEEPkig752e3YASCCsxk4B4/cwN8kYG7w+flv8Uyd1co+puHmku0cy34zhaMQFCBmSSTBBzK3L/ypfyDhzel0muGDcoOv8sOf4q+O7ZgBIIKZFCSgN3e0n1P1+n4mS6888kXutW7tgxAegsMSMImkMQiSMKKbLwC7YPNq4ChbRa2q9VaZ1wSGNrQTWZAuHQmrCRsAkksgiSsSFCBFGVkqxVVXL3aap5zLmTs+IYV6AE2rOoPedu7586qdSqEkIRNIIlFkIQVCSqQooxEQUeudX5mz/kPY9j+c3tCxiY82Z+rueqwp/kvhiRsAkksgiSsSFCBFGUkF2ygle+deSvQ6zXxyUV9/BIONb7LFXvQHIye95GELK/Zebjql+zdgehJlMqP6V+iu+Fh8CwksdWqsJnRvOsJFBpVxh9AkoQVCSqQooycwApi7OEuZvvEwlCSMMYNOxSl0mP0JEru7uFraM0z/JXYlUCHwkeaRhJhbRxfzcr3VOEowc2Ik/V9DOxafzp2UIEUZWQRJCGLLzOWtN949vrmmbu7eV1yr2ED2L2cjSTC2FRjGJ+aqYB/EAMlP7Q3EMV8dJf+Sc9E64i9qUA6Zbno19psXAWQqfZkVPKXQY9G2juE0l2SkCWp7I6jB3aRN8+eONh/13cD/DFkFpLYcr0qVxb0D2I0uRIhX5eIf3RC+EcVqHFpmtGKVJKwIsEKpCgjQfKOSDO8zHgPd/HtMegVoCDoLSZIQpa7PrkrDco8tFS6dbf4vnGvWfxLqAAn5ber9mQOTwVoBfDPtv0m3BLqio8eVGB9lJGt0Tsi6QTiX2Z5eHyYFai7bnO+CvjBZecGgzJ9gn7p7uru8YPSLRoCDi8voQJV144idER6pgI4s6mALUSlsSnzUrkohZCEFQkqkKKMROYm74hELpPR8vD84OfQgudbgZJ7WHqIgh64V25QfozegSvdDuAb+sJfqAI2EmkfYyrAV8Jb6euDWpAgCSsSVCBFGcnc9++IRPZOLA9PZzwZHl6gAmb/0QLc3jhXfsK7TQpIvnOQxFav2+XqDNVhxVQA8NzdThxXO66LBgIhMR/SSTsnkrAiQQVSlJGws3pH5PTy8DDEfEoSumFFwlBDEvJ5ou/FSCJPAl+wZ0v36ESmBXF87mxJIuhBTJVM+6uSsCJBBVKUkSB5R+Tk8vA2IshMH9rI4AoqMJex94JIIrp/NfQCkBK4Iih3SwA6hREChsPYlNLFbari6Fl+SViRoAIpykhkrd4ROb08vC/5Kp+dbjXWboUTLi8vv6fNNBVMgCerAmf200KpAiz+2mh0SBJWJKhAijIyHfrDd9rQkpHNTY2vh4dreqG+PgZTXx+Cqa933+UhIyWQxCJIwooEFUhRRhZBEjJ8HUx9fQSmvj75hBrwS9/GJpHEIkjCigQVSFFG8gFoNq/n+EhN/fgqWdEQbTVa6QRJKMjl5S8nCjBXBThMNPO2kZCEFQkqkKKMZGMfn9dd3OVNQWDulimD7wnYoGwFbtmmfIFf/nltEEmcQQM9wUp2iZZJJGFFggqkKCNR3N12gz2CCgeKe0OvAqp+phBRuw4X0SaReCRhE0jiNF79gH5PIwkrElQgRRnJYuaYkHN1145dJBXQzRhTgdjVKrx154OAJGwCSZyGC7f59XvykIQVCSqQooxEZvdcO6ryTaER/tu9wTiZJaZmoWpjxBZCJGETSOI0PKGh39NIwoqcqApw4eiU1/pegDKSmR1XzmKqQJud8QabhF7Vd79NBWo17HX1TbmDY0jiNMEKzMFfxJWvIwPOzOKDAAxzVvo3j7jJrbkoI5HZvbhVPacK2KJIteicTpjGhagCjXjY3L0KJOj3NJKwIiekAsog5x8E4awMTxkBtmGx5qCMVGZzZoDdq8OmueFN8w8M7LPvkQ5IwiaQxGlsgHKsKzqJJKzICalAqVy+vS2XnyQqgNp/Uxq4u9Kte93v9+0ZwbkoI2cwORjYqoyPGu5CBUznPAqZQhJW5JRUwPUfP2ZJexUY3LmbV6W7R+4VDcPdKg3B6kjCJpDEKfxdAvtUyBSSsCInqQL+Vn1p8NrducETribunwxcgDIyi+vS8rLK+55Aazg2a3uEJGwCSZxNvh9AJGFFUhVInOhxZ/oo0EX0qQJ91PcyXUEW+UPHGdzcLGQF0PZ2h7U6VaDa9utrZ6ZpZZGETSCJRZCEFRmpwBPaymfY8NNa+K15j4ePv4gnXgWePL4twyUou9dwAp859xhmAeoBO7AIZWQKVSCutmObJ6Ch2dpMMywJm0ASiyAJK5KowFXZlW9dudx3T0qlAWzqQ/fgirMejwF/ETZpG9zdlaEJnKb7GKGPvBvg3EOLNA9lZAo98Ha74XruDC5hZI9tzHbGJGETSGIRJGFFEhWAz/zYcdYzp7+jMS3d0IYelQqsjTIyhSpgL4zjUwV+mljHVTOPEo6QhE0giUWQhBVJcg8edJmeNCc304PmR1CBKRXgGzfSZdRTJGETSGIRJGFFMirAOe9UAbjRZjrhF94vFZjmyg3K5QfIjJsHn/6j+Lqjt/SQz4juiW1caSrzCs4TX8Riy+m40uNbNqL3XAV4/WX+uZKpgO9gPLu1nftgmyrw+gZ+IHymvrt75WAHYAkeXQ3oGx4BW1MBYu8qvSt9+l8/hOqwTRW4sqWTBugR8Nvdlswi+OXVDp6tqoB49xNt7JVtqsBRE1RgHebI7B/NOGFQgXUYyXRXt7dlV4bTCyeYPcLH9oC89h42QQXWIVUB9AvpCNyW4QU+el264XDarXkGB09QgXVIZNrMilv4gH4djFLpEZQguIMpH2af+9sb21SBknvg0BC4/7y1A8/KHCV49OjGVkk5eIIKrEOqAvZ596g86Pfdo/5rDRhb6KETVGAdEpmaaDco8V47G4LBwD222VdHQFCBdUhkwvlz/f5jqoA1BKXX7uZJ/1VQgYR70BBAC2D7qQIG3UJYhlfad9jsQgU+5pPBe2fLKnC8BBVYh6ACS2GLQPy4fuyRoAI5bP8ivksV0PY+CSqQww4uAhrwZ7S5T4IK5LCDi/j0IIxAUIE8dnERl+9qY68EFchhFxex/xdVkqACOWzoIjQPtwiSsHWCCuQQVGAdggqkqDiLIAlbJ6hADkEF1iGoQIqKswiSsHWCCuQQVGAdggqkqDiLIAlbJ6hADkEF1iGoQIqKswiSsHWCCuQQVGAdggqkqDiLIAlbJ6hADttQgYpfWqw5vtDj0FYgtEUHo+xihJKwdYIK5LANFdCaQpFeBWTvjo75siqE21K0Y++okIStE1Qgh02rAAva45eXafJlgJE777qGrTlV4QJ0QQUOiU2rAPFWgEsNt+w9YK1e8mowrToXVOCQ2LgKcKlXrvVaierJ2tN8SU2L/4bchThjb4iRhK0TVCAHzu3cAP+wyhPF61UAFR0NwdB1XN1MgDcDfFFwi++wVGSihGydoAI5bNwK0OXjn6lA19d+UwGzAlCBLt9lqchEErZOUIEctqoCPTc8s6KnCsgKVF3Tdf0rKjySsHWCCuSwHRUAFToCcQWqYCrQTKwAXx+NpuBM0YMK7J2NqwDaeue69W7rvN1FF5CvK4QKDNvVFrzDOqxDnS8tbqdNgSRsnaACOWxcBUDmxQ+N1rDht9AwtIb2khIbGtzKS+rmElQgh22owGpIwtYJKpBDUIF1OC0VGC2V+MRWzp1cOHHB+wpVnEWQhK0TVCCH0UXYstk3D8vlmxsumejw6d9E4RcPX/C+QhVnESRh6wQVyMFfhHXjHLSg/NCrwA1fqoGy1w5XWvC+QhVnESRh6wQVyEEqgP99/B9cDQa3t4PBAytvLpv3zJX4wp1F7ytUcRZBErZOUIEcpAKe/m25z9WS7K1UrjQoYwdMwSv3kHZg3pvKVJxFkIStE1QgB6lAYgXKKHYunudVosy3bT25Kd/BEsx/X6GKswiSsHWCCuQgFfBQBZ71+88Gpf4T9/iq9ACdA76wlDHmv69QxVkESdg6QQVyGF2EtfMDN4AncDsold2T8oOS+y88unG3zj1Y+L5CFWcRJGHrBBXIYVwFXt9Z+3/3+pYv4HTPSu7BXal0deOdgznvK1RxFkEStk5QgRxO4iKWIqjALD755JPLTz75l/XrxAkqMIuPbNKXfpw6QQVmQg04iFeG7ICgAjOhGdDmyRNUYDb3xwgEFcjho3tjBIIK5HFvjEBQgUBQgXvPwaqARkmLIRlLoUOKIRlHTVABHVIMyThqggrokGJIxlETVECHFEMyjpqgAjqkGJJx1AQV0CHFkIyjJqiADimGZBw1QQV0SKvVHSbgh6u0hv4h32QdIBJz1bia3zYk46gJKqBDUL6aK8qFILouGjpn2sDlHxTaqroefvjohmQcNUEFdAhVwH+z9rtaN3a1OFbxwxAgVItEAR8RSMZRE1RAh5gKsHhjU4FhFLluFEWV2FX5P665VhcqUeWiYWnTIBlHTVABHeJVoBGZCtSSZeHYCtTShiA1FUIyjpqgAjrEq0CEph8qADeARe9DgW8ITBGM0VIgknHUHIUKwA/X+sx+HWehVZ392izZdTuLq0A7TqxAUvVR/pE20S5g8xyfo9WiJeOoOQYVoPHVamyugb+0OPiJAOw4d7aUt5CMpdAhdhq28x3vC7TO2S+oQxvYFgyHvgWo8twZJOOoOQIVYJETbUWuwTX7RqD3ljTcOiBTMt/W9xx0iNc0IhVwrmbrwVIFfEPApaO7PTYSIyQDLHGmA+UYVAD+OF1xFFLVrDWUwAZpWDId2G2UfcM1u5mmQDK+d/mptuagQ6gCCaYCLdp/mBaqgA/FH5skbiZIxnJnOlCOQQWsD4ay751XI9epuHMUgdpnlkaHRXamaB6T8L3Ly5VUoCMBXXz7mt6jR0gVQAisQE/Vv9n138CLWPJMB8pWVGATKI+Byprr+JPYNVyP6/iyZOzLuTPu6KW+IhLBYlkMIuqQYvBylzvTAcOLOESUxwCtQJtNAaq+uX8ugi+QWoEuP6AHicdIKODneHWrWIEimIRlzxRYDeUx7HLXwRHotc673h5Y5z1jBYZdLt3LlloHAC8CRVNUBSpoAqJRJyMrehzJWO5MgdVQHiP/2S2rtoY1K3yUvutgM7UCTQad4XdmzEAySj9XVAXaHAemHyq9A5l+QIpkLHemwGooj1HmTVeL0PPjkt2kBXew3qrQZ4vti+MCVVdru0kvbTl0yDiuw6YHQAWs+YkWqEBg8yiPOS7YYcm3sekaKAqzBQYddfuGBiCszSgeyVgKHTJG0+4VE57FCCqwc5THxZCMpdAhY5hKCa8KixqCwOZRHhdDMpZCh4xhY44GbYwPCiqwa5THxZCMpdAhY9Rc1PQuQLAC+0N5XAzJWAodMk5qBSodjkH3WrWgArtGeVwMyVgKHTIOVQBf+KhWY3ygi6AGYRzJCGwD5XExJGMpdMg4qRVwTRt9phrMQDIC20B5XAzJWAodMk5qBfgJRpNExpGMwDZQHhdDMpZChxRDMgLbQHlcDMlYCh1SDMkIbAPlcTEkYyl0SDEkI7ANlMfFkIyl0CHFkIzANlAeF0MylkKHFEMyAttAeVwMyVgKHVIMyQhsA+VxMSRjKXRIMSQjEAgEAoFAIBAIBAKB+8P39R0IBO4n35/zht5AIHAfcMEXCATuOcEGBAKB0CMIBO43bsoK/NXf+Zu/5yIAfs9v/s6/qkwJBE6YSRvwH/zvVQUCxp/4I8qYQOCEGRsZ+J1S/sCI36msCQROlYk7haEvMMXvUdYEAqfKxJ1CaX4gg7ImEDhVJu4USvE3xUt9r0kiZi1xT58+favN1VDWBAKny1iPQIq/BE9fvPiA38+BBVw8xdbT0RZr3JfX1y9eXGewvRdfXV9/4bcuEPb8+vr9i4sPrq/f8OCXqKzPn3/24h1G97X2Peyy+Ni4tnNe4JhpcHiyld1vB1D+9XPIFpQ3ljLxwsceQ1kTCJwqE3cKpfjzefmBr0BW+z/HxpcWzKA3toVq/g6+vkDAy89fvMGvFy9eIHC012PV9sXF0+t3UN1fot5/lqmYb1689xxV/gM78g0+bR+/ISLfCrzheWgFPqN5+gzBPCUTOQaFQKBFGoHYwQoE7iETdwql+LlY6/yU1Qh/3gfAxlf89jWNBuF9fKNKvkT1RyvP2oZfNAk82nZ+9vQlKywPMKzywd/3UcHbp19+9oLyUZ+/YtWXKeG3RYBABrGPAPNBM0IoCUfQCjx93/shLy7e8gyI/IZpe0vDYF4HT/aCholuwlNeFAO4YwJlTSBwuiw9Ovg0W0toCbwVgNvPyo669gaVj8094r2HL7b5rG6opS+tKn6AnjlMwzsXX6JOYt/nbLetnf/8ApXzM28FIER8haPx6wXbacS0hhvfPOlb9g7e4Pfn3jKoq8ANYFbg4j3seo9m6OI5jcXIH/B2xk72/pvrr2ieEMjTBSsQuJdM3CmU4k/xAevrV75TbqRW4AKVEJUH1fhLbn5grf4X5gn4GocvHx/gkKdw8J9jp7ccwPcncPybt7ICTxFb50ptwggGe+kjzBBAIEzFUwjKWBL8oJnyfPUZL8Pz1EyOyfmKmzBVwQoE7ifL3ClEnXrzmXzuhIwVoEf9Bao++gWocF+pWfc1C1YAMTlIACDHDuEBX6F5RsSvXiJQu9UjQMBTmJOvUGGxA78+43AeHIov9e1je0ap+EK+wHMeQRmfPacPASFPL56/+PyDL+x0TBd4+gGHMXkyP3Zhlux9pjRYgcA9ZJk7hS/ZdF975zohYwXo+nNcj/UQEVnHaTKeWstunrgiWv02r+LNFxfca7WSAwXo18MveC+1AjAnb8yPx69JKIoHT+ANjt/EUUjGV2ZDRv2ELKztPJl5Iy9M3FfBCgTuLUveI3jfKl5S8cesAOoxar+16DQB19efW7BvbBmR1RmgL4+q+o6N0tE6KNrFe29gNcxYIK63FTx2dC5islI+4BgBwAE2bAAgA+ca+QK+glu19vuZRL8FOyQrgHhvfIcBW2FcIHBPWelO4dvPRrUkawU4/mfdcsCWPqn1rLn0uH2tv3iJTdRk1k4O7j2njK+sh69QWoLPWIufv7h+CkHvsKc+gxecVODBL+swkC+8mUmsAHsA/r4Az83RxCTxOCOTjuQlnQ7E/uDNc1izYAUC95AV7xSuBKoZayJrnB+IZyVjxUWzjZr4Pv3+d8wMfMAqy5b9zUs/7vfZW1ZpuxHoGfMFcowDavFXPOH1F5SE73f48ZxjCeDFyyQVgF0WihydwMdJDVsGZU0gcLps7zkCq7nv+GmCcMS/tGr89r03rHpPbZqhzel9+c6Xby/efolW+S3v+7/PG4Tki7TaT1iBXF68fPvixfOX5g98xhr9kqd5+eadD3x1533FF89xOjImkl2ZF+/NPIWyJhA4VZa8U3ifUdYEAqfKxJ3C8GTxFOHJ4sCpM3GnMKwyMsVfU9YEAqfL+PjgH/kTUv6A8Sf+kDImEDhZplcf/b1/Law+6vk9v/nXfq8yJRA4YSZtQCAQuH9MjAwEAnvln/orrVbrr/xT+hXYBeE9hYG98ci5B08G5XL5xpHb0rd+/x9rOHfeauHzf/j7v4UotiPBHxXYOOE9hYE9cnXVd+6q33+N7f/rf6/VUnUXrb/3h5173Pc8DlZgawQbENgbj135DlZADX61TitQHw7rySe6Bs79bxV5EKzAFgl5exhA5feP0rIrruAHOPdrqO9V14uGrPSNKEJ3wH8iQd5ACB0V2DTTdwoDRVjfp/LVcM8oLbvi6vGT/zkqO/4P4QsMe+OV3lsB2AbwF/5m8AW2xynk7CH0atbPR1P2faO07Ir/kesOXUwr0Kq5TqsXGd4XIDQL3gq0aCd0VGDzjNUh5fgeUAKKcAjaEXyBVfn1v/2jrqs1neviz7mo5qr/YWy0nWv7rcq4c9D60d/+dR0d2CQTdwqlDHtACSjCaYxwKh/2i9Kydf4jTgpodWrdXjxsVVynh1/DLsNABJugzXFfwL7/yn8kGYGNMXGn0PJ5LygBayBBu8afPPQIluZbv/+P6WxF+WM2lSCwMSbaUWXzHlACiqAaKEG5nDtXtyZl2Kq7hgKNONP4gDO1Ogz3G/PwJ59lBe6ePdJW6a7fH7zixuDmIb8e3Dy+43cGidsvSsv2+MN/T2cSlaiprRX5e39YEgOb4Ph7BMtZAfY+4XjC3YQPWjVPExZhEh+x4w9ZwQrM5Mq5h5J7U34wuCuVy2Xn7IOfiiUkbr8oLVvi7/s3dZqUmOWAMiGJ7z9JA/vGrLb4N/8+yQ2sycSdQuXvHlAC1kCCcuih4lfwbVYAVT1iI1TxQ9HtzKC0uQLG0KzA8JxHz8GffObYxFWpxEkx/cGg/My5AXLbPer3HyWfiiUkbr8oLVvg1/6xP61zpCRW2H6YPZgBLHa1iT8W3hR/+h/7NcnfKSjVlL4Cj5iDUUUloAiqgRI0G2tuKjUrNgGlQzUfBx2DrjU8iN/gbrRDbZqGfPzJJ/LRgCvw7BUqOwyAu7EOgM4iLNIIiVsArJe2cvAOdiVSpfGGbWmUlk3zN/+C5I8zHA5rLh4O5/gCKA3HUUN+5/gKf+Fv6iy749SswEQrpozdA0pAEVSdJGgmVCK0OfHZsIGGX4FNaKEB41DXZpcaedZq2fxV+gJohvh4Sz7+5DN9gdKd+QL4X3boBfSx9XgweJx8KpKQuAyW5mFiqWKE9JB4fw8tjlE3tCcBEdC6mpWILTrQ7yYcHFmzCq8viTeJ0rJR/vI/K+FTMMNpBmhyo+i8OXlBDsms4jrtas7nFMQ/+5d1rh2BUh2Ik7ACJ3SnUIJm4zqs0gSapVtSFatNqFjAblDX2nGn62ATaAu8q8ADlvEFZvLYPe67G1qBJ87RGTC98VYA+EgJEpcBZx/SCgzhAJy5uEcHumod5Ib3kJHQTqvVaTRwKdjJ9BqJk4NLQG3vDVF/XF1XgT28fNiCWT6O0rIxfv1v/0iSZ4LUxa4WIzERh2PUQUtp+SSObNocdjqV4E5POBmTw7xHyP25U5hYgR703zaMCHW+WsG+RpM1h30BG40yvUsOmYs/+awewWvnXj9wj2EFXj9G7+DJmB9JxloRictgcWgFaK6Qsop/5Jb4wTI2ljXaBtRz7EDaEeNsiE7BmC/QHdmxJkxeXdsdXPhU26q0bAY/KWAOqP1dpHRoWZ+mbIplrADZ0VSC+eV4jEx4ssrOSWCktTWiZ8Nr6oDiR6ZhaTZm3/6BB57fqVUCirBEjwCMqjTU39r5Wg9NKsEv6zHY3BVAv9sqyJpWAK7AQ3dz99C5m8EdnIInPhhKNEttJC4Dzm6+gLApdtV2vVuhX8Nko4oj4TWmk94La1UP31Ecw1eI4w57N1ni1pn3fDxd9HwmUFrWZ6lJAXXHAoitK0bytGNZKwB2NJXg1o/1ehR21CzTI/DVQRdNIhtrRxtl6ubnfOr2msXODOQkWuwPUeA0SsAyfFvfCStaAW610YJ24BXEzXP84KBhZBbhDM41vYM6f/CaqJx13/Lm4E+eC/xFPjyfAe7kLCdS4jJYGmAFWAk67MyTGlp/w8YFaAViXtA5rQA2hh1XZz4PeZzJQNWCx5AaaexlbWMPYhqlZU0mJwXk0UOyog77YsbavoDY+lSCO66KcvvoJIYEjMV3CitxlWrWq9kAGrZou5tWpdG4e6VEpalTLemdjgF9S0o5uQFHtZ2BErAMl5e/9N1JSwAkKI/UCviWX6ngdvWsQY+mWa92oJmubePrlU7Sblb5Mxd/8tmjg6sgcSkRWnk/LsBuQA25C5AmfiGjrdPfdjW4Nq5T5UAa+gscHmiaQcChIyvAwvIXBZQPdUqcQmlZhxmTAnbPdqcSPHJXpdKrh2Vh88COmgl3Rpk4BhoaaA70iO2JVz+qFaGGsRolA03aK3AUI4guPYZaTDOikDGUgGW4NFJLsMzo4PbwJ1/fLZS4lLqLI5iA2Hk3vg7Li8xr24N3yGjzBdpw6s/iRrPZ5LiA7+DQIBjIZ/QR6OgM1eUxCdVmN+7AbswqBqWlKLMmBeyLPU0lOFIWjg6euTp0R+6a6nmTzX88bHLCTbtHFfMPhFDXskRpUCxfNM8K+Lq9Gt4SLNcj2Bb+5MV8gaxHI3EpzVqvin5AjJZ+2OJTNx3X5vA+c7R6xqZ9ZGVplKvnrW7XGnzmcxTBiNDnrjWSzkAXHZuuO8NPuzkys3OmtBQiZ1LAXLIKQ7VQ6+KxPuQYmUZlKf7Tu59KcJQscaewEcPpTGqurICVF/1SG9/xX4iCgDqbKg8sBIsNMf0wFPbOsQLLIxNw+Y0ffNN+H4IvUIx3L7/27m9rW+L2i9KyOn/535aE1YBKjLZmWAGDd3C6mg21Ov/2jqcSHCVL3SlkW89WCIxZgamiwV74/AmwDCxIuKS9Nu/OoTTREG3GCiQWIIMETUC9kjphi2mPbISipgtiV4W/XVxQz/zJi/UI3jVr5i2BxC1B0riDZmZ7eUYzC6fwyZrLv/zz2hjx6//03EkB84DCjJAVsGEPwGLrdVlW6BGxIcoU2Wr86J8OqxLMZ8KTVb6N0/MtvpVB1gpUOedjBKvaLCuArsM5RdSbvqATARMoAcswaQHm9gimrcCQ45nsLbMqcGogEy2/pQD+5JYGq9PF+Nq7/7jkjUjylkMp/FIwUpraq2rymE08laud2N/sbMszA81Wr83ZRjbmXqnWpm2BXct8Prm8/I9/pG3y7+jQQkBhRlu8QK025Om1zn0fyN8jaNYzF74q/87HM/nlD2fyz707k//2pzP57icz+V0fzeS3vz4T5ea+WNgjYEVpts78ECDqtLWnppjtZnIPB79lBSZ7BDTiI6B2tPZ2yARKQBFWtAIe/EAtoZeTvUEVsRUyXWtGaDAjW/mi10VgXuu5TsLlC4APP5qV/MhFSYpRSXyepyDnOf1Wv4AvCg9Mrl21dnkgi8/mwMWO4Z3Nej5H6ZrHpz7FfyvpyWzQF5i8QlyCNjw6aFUmfIFvq96N8ztUScf4/6lCj/OvqfaP8RdlKcb5f8qsjPEvyQSN8wd8vk6iRG+XxXcKOYfG64sqtFWSrndFp32BcRDYGLI+8el+xxXlwEzHTglYAwmagJqlhwSwZXUKVR3GzJLBnQzyIK6fUYxkI3Yb5i+2p5Db9GtmGq8k4cVGB80KwAIQiUsZOvSjXK1q5/VNpT1fZ2njIF8PDk0Ma+Utbn3Mza8ql6eTjWuj7e7NbFdX8me+8YPvWMpJwXEBXJ9Pvx/MpF1DelECBn57vSIoHG2txHGPC+zMCoyhrBvnXJ3P5nB4PvGIWkdzhSpcI45d7DhTxTs+UPQ4k52P6+j3BEpAEeaODo63L6pRhI+pcOdULYGpgkIyEpNawTevObfL4E8+kY9L8q4sAJG4lKHruqYbxma+kKYe+sjVLt38XoPm9LyDPlksJ22iRwAfx76Z+hG4Km2JrPPgUVrm8UdlAy5/eWLSRoF7BMhU6kt3GDXsziUf/3Y1XNwoq0cmXO8nWI2jv0ewIysw0Yop9/aAElCEQj0CeDFQO2hdZvKMDUFxepO3AlZJfBU05lmBYr5AFolLGbrqWeu8zVsxvrr2hj30zto9uFXDVqWCTrTtQY0/n7QC071s1DjEGD1GCdCd8JEzKC3z8P7Lz+nXOKvOF+h6L9MsNW1Zg0bhfDSbEC1McStwEvMFdmQFTv6ZwikroGF1bwVM//wAW7eCH6wX/r5oYgXYmmZd7Sn8yddH4lIS++OtQLJIGi0VewWGr+y8ogkrgEtBoF2dwNUjhn+M0jNr3pDSMo8/+u7f0dZs7sHcwd2xsx7BMr5A12bYouLMaA6t7tQ1JQDWvJ0+qOYfOAJorjLP8c1ECVgDCZqANWHMCoyqhk8RRwg8kfmjuJoxK2DjAsZsV0AJL9YjyCJxKUO732K+QC06r7r/e8T52364wtXqDaTHWwG09MjgMSuQFghoohvGW25oZ3399xS0Akuw7HMEuUyOWXjDvSwntCThznyBMZSPE7DiWHszqybwmRz08PzNXLSc1Z7pqmAgB+KzMGwKJaAIc3sEM6CjnNUz/lZzP74jgRFyFdGffCtWgBWbdwk6NdT9c5qFujexzUaMfB75AszU0bNcwu/ycMDT2WxDXMiI9tasAFhuoWGmKwXJ4d2YIdydtnUCVBbQsFnPPMzkxJYn3tm4wOIegWnZGDAG2aruQSH6xf2aqEpoSn3jpKaUY3G84+tHt2egBBRhVSuwWfzJ10fi9ovSshkWri9AfMuCdsYamDjznDGCkk5Rwri/M8VJvargBzYEa7yroK2xxOqj9ATsCVu0SBqqgZGGFdB+q/+2AIG51D5wZAVaPfZneZ+QtGc1tYYSsAYStGv8ybcwOkh63mTm5poBVyXXUxGL9icoLRtjwVpDYK4VQIg6k1C3+Sbg9F5bNDIDWzcCk56ssnQM+JNeC8d6BIkvYE+3s6ySSR/eq0OgL89Rd+CsUZ/Xw1YCijB3dHDr+JNvoUcApx2d+WHEMYHqOfsq7COwP9+O21zWQfGsCnVnTQLyBcL6U9OSfcPsndwZKC0bJX/dQSVvBFd9Tq0AGpsKdK9tj0hF5/AjR6Oik+x63cHdIDOwfSMAFo4O9tpjPX1Aq0yTEEHNuACGBtRaroZSG9kHT+v8nKXYSG153nyVwqzaI0ArM9qYXm5nVfzJt+ALqCqM+F/FNVeLK60O/iq8izZRKqMMznDmOs2z82SdMlz2cH4XW2nZNDlTCaBASBkXgfdfTVxSthOA/mTDv0wGOhaN5q1MsIc1iHeEmYFdGIHl7hRa8572CNiW17j4RpMlZC2OaWCPiskNq2BSSivPMXz4BEpAEVb1BcwKZKsQLNhkjTKrthT+5OsjcRlGKUF6UT2aUc3Vo3Nb3IkeQepRVWcZAFCpujM+FY7/QxSTrZaSvXkwjdKyBXKmEqCF5xfdGXxVnMN/f2EIsm8/uJlzi+nEFxGAGdiJJ7DK6qNQppHmobDiGqtOw+61Rar//hOkVoBwFrL/ad7DLJSANZCgRfjGJubK1lyHC741neXstc1J5Qz8ybfQI0DlR/vImbXeCljKq42MFbArQc5yRjBheWSJGsNGHPfqNXQiUEx2GwGXNmeUQWnZElNTCbjMm2W7rADMHC7Kv7CYbmXl3C/4ZBfW7vjlE0bcg3cT/WAnRmDSk1X+joESmoL2+Rxa2a7QBkA54bJxQj6tQJdlCL/Bni5EuVmUasUmsp3juNltkRJQhCI9AiSS/jUqE5Wue6BWAK4Xa7i3Aqj/zr8vwcP04hc+eUFkciXv/5xi8sWMZ8nCaWMXOonSsj3GphKgp6mmQlagAt3wXQTrJFCf2h1f9bkAXLZMDmZSwPp9wUNgYY9gphXo6CkcOJ3YoMG2/ubICiRUuK9qS2HDMJDZzuuurQAfHqxVk9mp5sqsZQXWR+Iy+PwaWYHKcOiS1/gQptCsACc9nrc6/lUFWWB4UZdsDgSsnXcB0M2279koLVvlxN5ZvL793xujpC9xp3A3KAFrIEGLkDEaY30rsIXRQd9qd5AStIz2rJ3NI6rEsKpwEypMswfdBofaPTX8XxnWzaF2+KRzxgjJw4azUVq2Tv5UgnGnfwaHNingiH2BjBUYQzm9B5SAIqgcJGgRHXtLkc3GPYMbgDrC+Q/rWoH1WwSJy4AkddmXsmcHYrhTtALoOrNRhy3oNtNpArwfOzl7EJfBN7LBE+iam9Co9jijI3OZ0ygtu2D2VAJ0e/yGeTmTnN6kgDW44gtwB+42+cWNx65/5cql1z50gM0lGbNlyu09oAQUQTVQghZj3Wibx8SFrPxN6HWtwDZ8gT2gtOyKqakEsGbI+xFjFutAJwV47VMax5h1YzM7w2v2LfMUE5yrGEkXr8u+eJNeItS6zuyjgts2+uq1PKtPySOlvS/vKcwC/xmfPc5DITaRBlZgnAMYF9gDSssOGZtKwHkNNjSoAY20Hh3upIB8K1ClexY7Tpw762m4DH0zfwsESjf0A+UzvR5igpeyAsnUvFrdXmEDo1BLp/3P1mRKHlX9+/OewgQaSpvqhLKBneSzDbCjh9gj2ANKy24ZTSXocX3LqGIjHJm6cQyTApTULH79BrsNUhmNxeCyRnpGFYTy8UpnegX5ohPqSR6pEYvgC3AOD+xBagUyi2lloOSMLzCGouwBJaAIqoEStGv8yYMVWA8/leCcYyGsP+2RFTj4SQG+Bllas/CZmiFvRAsbekqBgThj/YxdA1eK7ukMx90E5ygGWvs67AsNJhwBiIEdgQnAf+Qe95p/0Bzdip1CwhPG9FdR9oASUIRDsALrI3H7RWnZCzaVwFeHinyBY1gpwGuf5V4W3ooaok+TWDO1/ClosKucfGtXCpsxXV1NcI5iDF0zefK81uWbnw2zAqBpbogPyxl8oORR1T+hO4V7ZcKnKoDyYb8oLfviW7/fW4FuxDXuj2OlgBxfoJFMicrewWXNZ2hU7baatYar17BzZCcmMcHbUgxKzliBMRRlDygBRVi/Bq7PRD4WQPmwX5SW/eHc//uvWG1xt3rR+3Gg/MsiK2DPb9XrzZ6N3Ed2bXpJfsdu7+7PCmQYq0OKsgeUgCKsXwPXJ/gC9xWvfcq/LEmfPHZV9NErVdeB/8/3LNEOtIe9btVVOamr7Wewpgv1JZjgbVqBkdJO3Ck8Sg7BF1gflc5+UVoCy7PQCvC5Nb+8A3r//h35rfN6r1fjRDBsDu3OoS13P44JniUa3kNK5oXAtg/OhrogHCP03zMGByh5VPUn7hQGCnL8tvSA2Nlqe5tDdWuj5IrO9CG8FRjZAdb3KSvgx1omoOSML3D8HEINDFZggxyVFfA1SHVrJjmj9AsxwctZARtsIDMmB8SZ4ckUCU84fv0NNdDz7V/6VFtHzlFZAa99qltZUFX5+oeac/T4URvH4PvlRrOKZrbWS1sBNP5s/2suivwUBJidGj8sGqcVzICSRxVn4k5hoCAH4FN9+5cuL0/DDJyCL2B38DvnsetE0Vm1jloOa2DDgAA7EaVe5RIdCf6wLCZ4CSuAGg8rgMBZVmA4Z+5gxgqsy4cfamNvHEKvZv+2lEbgRMzAaYwLoA52bCkb8wa6+D1qlFH5bUmYXmFfICWKWc8hscnpgskpzAqAbt5UeAlPWLMOfXh5uW8zoBqoy9s1/uR7t0TeCJyGGTiVHkEDNTFuJ73yCSvAB9wbXOyqFmOrPWNxaBO8nl5nvIYJKHmktOveKfwhNW/PZkAXo8vbNf7k++Y7P2s2AJyAGTgFK8CZAJnHCNDYT1gBmoVzPjrZ5VLeXAZiEhO8Lb2m5FHVX/NOoRmBy8sf18+9osvbNf7k69nStUmNwCmYgZPpEbTOXLXRG/o1LGZYAT4/yW77ij0CMrorYBL41AJvC9qSVAYHBXMGBg1KzvgC6yAjsGczoBqoy9s1/uR7tgLGR3vvm22IUxgdtAeF4JKfsZ7WGj1W9Sx6tr075GIKw+F58qbMDCY43wp0bY2Cug3/1Wpdq/X44lljPleUvBAof3Qwwxr6OzIC+zUDh2AFDoFgBfaB1z4pQwra6g5qo90daHVrXG8k7fp3eaew3WtVOrYKtt06XN0K1B1MQCwr4N8L4GmaFai5WjRzqoBByaOqv/6dwoMpMl3ervEnX8+n2gzBCuyDPF9gfUzwHCvAewJ1fFiPYOi6rPV0CKzmqzfgHz+eASVnrMC67L/IVAN1ebvGn3z9fFyfYAX2h5RhBtk2vkm/f7rRz2Gu6Ng1bTmhrrcCtZbWGcA37w+m5HgDEp6wbiu2/yJTDdTl7Rp/8uALbJCjsgJe+6QMGeDsA64BbxucLxDBgWcN7XIswIYP+aqeDnaAFZ4mAk1Xt+ofu9jV65yS4JowAEP0A1DtOUsA1qDGRYjmWIGR0q7/TGHwBQ6FYAX2QZ4V4Fpiw5iDf924zjfDeCvQ8y20829di/S+uXjWCvEmOEeva+lkIJiVJnwB3njwZEYIyOxpQ5Q8qvrrP1N4MEWmy9s1/uTr2tJNEKzA/pAyZIjHXr/s7Hbg0LWrrt5xVavy5gsMq+1epVrrrugLrA0lZ3yBddl/kakG6vJ2jT95sAIb5KisgK9BUoYMMVr3xA5Yc6weAQxAxdx2BHTQG+ALY3p17GScMUzwNq1AhnX1N1iBQ+GT3bzmevsclRXw2idlyIDuv54dAqz0Y67BEFbCuTPEEjP8dhO8pF77pQTsDSXLQcmjqh/uFK6LP/n6PtX6HKcV6A/GQdAp+AJN53pRzZ1xXMBeTwIrENNBiOyL9+9sgs+cuf4meCm95uNFtbH1hxdCyRkrsC77LzLVQF3eBD15WmMOV2/GrG1SiWZM4QIoSm1N40++fj6uzzFbgYfO3djG0VkBj5QhpW4vHmrakwS2NYxdbVhz9bp9xUPe6GvRT0BvgF/r9QjoBNQoyM8kXoyEJ6zbiu2/yFQDdXnjMFd6vjTSWyZdLgVPWETEfvh3F04P0sA4pFGm8ScPvsAa9MsshMED9/i1/T4qK+C1T8qQ0nU9+Pxx57xVGfL5Yi44MgY0s2NWQKxpBZbvC3goeaS0J32ncOw5bEBXKRMWI+/aEao+bPX4zRWS8atwjN6kOwN/8kPgOK3ALfK6/KTEF/CaNXh1GlZgA5jgZa2ANwKFxwWO3xcQurwMrPGyvH7lJwail1a3XfARGBSPajhicMB2Go7rzPIRDH/ydW3pJjhOK3D3pE8Ggyt+PblD0FFZgcNALzBP3mO+HBlfYF32X2SqgaqVGWgFtGlVmVagEtVdzJWeqlHUQxC2mmnXYAx/HODMLI7vzMSfPFiBwvThC4hb/8L9o7IC69eg9UEWDl57pSUKXYV19ffArUAWWoGs64/9fEVEFzEjGAdXw1cGLyS5xZM3PuhPfggcrxXQVmlwhFbgEOx/QUZJP+k7hcmIjF4ZH1t7rioOfI+g4sdwp9yBMSNAe5JjBvzJD6FFOF4rkBJ8gR2SsQLrsv8iUzmoVqY02w0+dsXFn6q8AVjp0Ax4bSNcBAruAWo5K/hwtELskD0AWx4G9Lh0VGRuRd2HTOBPfggtwpFagbt+X1ul1317OeFRWYHTYF1btv8iUw1UrUxB/TUr0OpVG63hWRM+f4NWwAYJre5j+4xdBFgBvm/euXa3V2G1r2swsMkfbf6wO79JcBZ/8uALbJBgBXbMCd8ptB4/qq49x9lFJW6ija9M+gIdDgf4A5p1swToIcgPsNWizI0g/qFt6z1k8Sc/BIIVOD12kxWnfafQTwTyoDb32JRzjgCAjVCPYJwKdiTrRKI30M5OMozSxR1T/MlDj2CDBCswYjdZsb4nu/8iy+sRFCd3csAM/MmDFdggwQqM2FVWHH+PYPNWYBX8yQ+BYAVOj91kRXimcF38ycPo4AYJVmDErqzAuuy/yHJGB3eEP3noEWyQYAVG7Corjn908BB6BIfgC/z9l39UW0dOsAIjdpMVYfXRdfEnPwQ+PZEXlwcrkLKbrAirj66LP/kh9AhOwAp85yc+BpeX/PyJ7yjwnvKpXvsFfqCgbbG+J7t/K3AIPYJgBTbDN78hxb/8xjcVdG8ZmYFtGwFw/D2CQ7ACh8BJ9AgSMxCMwMgMbN8IhDuF6+JPfgijg0dhBbiKSPJp+EXGUrwZSI1AJuqIfn/yqNPEzMAReAKHYAUOYXQw9AiW4xGXFLu7cY/543W//xC/+/2SzfF2/QE//9V/5vLyn/lXk0UHHrhntu7Akxv37EnpiV+NxLlb+37o45wuMAM7MALg+EcHD6FHEHyBZbBaLspo0ge3g8Hg9sEAVgD24QGjlN3gm9/4xn/ixnEx4lLpsbuBM2Crj9z5EMJFCu8Hn+7ECIQ7heviT34IHIMVsFVEQNm2Xrlnd9bYO/daS+ahne9/85vW2KOlx6/yQ65P6rkasyOFltYKzCDcKVwXf/LQI5hC+ZPFr93miTMLviC866p8hste5hm1bJX+Dh8Od3HFv+nTBEwuFa1nwlN07gNDids1Ovti1vdkD6ZHsFeCFZhCqpilyWe6z1yDX3yTv18ILu6glrP+N1stvsmTqzp17enuyN7sB+LMQk98mwRDm+0Ziz/p3AeGErdrdPZlOP4eQXAMPQdvBeqOqzr02q5bwXbMZdwQyoruXK/HxRtQw7u2SFSy4pusAGI2W9044jrytA+24kucXftB6NwHhhK3a3T2xZzQncK9EkYHp5AqpjRcrVVzHfgB51XX4BbrMqszrADqdR0x3DCi18+6Xu2cj6wA+xI4onGGqt92MaLQDtQ6U++T07mX4omtcjjrTiR4rdUQ+/2cCKugxO0anX0x67ejBzM6uFdCj2AKqeI4tqqjc21UcGvh8dn1PQLSdee9qqtbG99ts9efWAE70L8TInZt/zqvSn36pZI69yKuONLIEcpX3OAyyK/8joF79oy3MRHhWblcfnLr70nqVuYIH3lplLgMXObSD2qY+TOaWvw2SzNZM9vyBK5UZsU7ZB8zh2vp+YBJdPZlOP7RwUOogcEXmEKquFt07gWoLifAIbh5+FA/yP/4mXv20F3dDcru1cDmNmTvTQ7WtwKJFwQPR9+wg2lgClfF00YLfSbA126abyQrYMOos9HZF3NCdwrvPYdvBXo5jRbaQX2vi869AOdGi5/bS1FQucroAoBH2IVOwGv0Fa5gCjhVyfoNsALJexM4t8kfujRK3Aj4NXHDVSu94bDtGpWqX+aaVsDvF/gdsb73WOdZ3as9LozPtTBHVsBGSDzymlJ09sWc0J3Ce8/hW4Ghd2ihvvaTem43CtDI8V4BvP0xFAl9gGRz6CIe3K024CyPegsZdO5FZN+EAoPQf+zKPiip4Ve3zt08tDequ9urO1kB7NiIFejVeIek7u97nqFqW5/ArAA/POYGRLxrQgOA/67KTKFDUDO7QCtAV4IWpGPewgQ6+2LWb0eDFTgUDt8KQGXBkBWZjb/Vgs55zBHDs2odagy9Vod4iJ3+IIaOln6uuTP8QvWH1he2Alfs6mfgZKTyHUzB4/6ddxMGN4O7q8Hg2QPYgbvBzQNZgcEAFmADVgCwHtMFsDdeDM3LT6wA18hGqKwATSD/zkb24Ry5IStQ87dMeJt1xtuKdfZlWPWKJglW4FD4weV3tXUQSBUznHEcLHYNqO+5b7ugyx2+3d97A3x9xKi+mxdsIHryWunIphPBRjTXsQJ91OZnzqGpf+CeYbtPKzBA7Ubf/9Y9unqMPsCte0iP4fXdDTasR/AaMcnrta1Ab8jKO0G9yWpuDTyiwAbKCthO0GpWkIHwper1bqZH0EB+RHxzBgIn0dkXE+4Ung7vXn6irYNAqpjCjm0L1Zfqy0FyVHjnGnAK4naiwjOtAH1gDaObFaitawX8LYD+K1TpG7tHUBoNDaKxvy27V6/7/ZvH/f5V/xWMAJ9gTJ5fIugseClLo8SNaFb9fZBewwYEKq1mjKqcWAE6/nYLAb/l5sMZgN2sYGelYnmE3KEpYQYge+A5zJhBtYoVWJdgBQ6FQ7cCzVrD1WtotGgFCJ1h6nsC9X7KCvRqrtq0yYKgw34xa0l3PSvQ58vS4e7TDpTv8PvZ3d3AP678GE7CZJ/hClagbLFJeQM9AmQBXHjU6LZdqbnzZgWS+ZRxbK/RiuweArpHMYyoTbc4o2NkL9uRFbBsnGUElrcCp3CnMOA5dCsAOnZbK7EC1iOAN1ttoJdskwWnrQAciFrPbq/TX6hE0H9OQF7TF9gK736kjSmUuCzIAxiARtzlAIGfBGBWIAt+R80GpwpYtlU5PwLXz7kWjU6P8ZEBOJxUpwcHl8+MU7hTGPAcvBXoVl2VDVe7buN/59Y9gPbb+yBrDTjH3EhpndNRsAlGpuxVcyN8s9fkCNphWYGPLy8vP5xpCZS4Eazvk/gewSSo2/5OQuaOYGIqEb/NDIIBsL1T0wZ09sWEO4Wnw6FbgV4ttrHw86F5vK6Hdr4DJbe7A61uDVrMEULR5Z3CYeY9kZHdXqt6o2BVxosbQ+feC7QC5IffU8AIJW5Ez6YDjtOzzoAieKxbwLGQBjJI0QyfKciCuJUMqfRgVCfR2RcT7hSeDkfQI9g6Oje00rPrX+KXxg2BErdrdPZlCD2CU+EYrUAlmtGfXQOdey/IF/il735bASOUuF2jsy8m3Ck8HQ7eCvgpQq16h71Y692iP1uz7gEYdWvh6SamwfeJE2K7aYi99glGQ4kjdO69ACvwy5/8vH6MocStRqM2GhKpdab7Pkugsy8m3Ck8HY7ACtRdjL/zZCx8CLtgA4WcKjjqE+vuAOnaPpgK+2YXOGbV9xFscwKdey/8rpkWgChxK8D1WGDy+Bg25wOMxgJWQmdfhjA6eCocgy8QV13Mye/W+PuWnfChmZEVgAPQ0KbH7ohpy2L7r0PzBfJR4lZA9/8yTF/rQnT2xYQ7hafDEViBCjoD57znP6y5uHuuZ2DGrYDd9Rpr+VIrwJ1D3j4QCk3RuQ8MJW4FYAWs2iMrsj9XQ2dfTLhTeDocRY+g6tqug1rt3XlWeNKA36vpb1xvCEqfHTRMrYD3AoZwkP3kIQWn6NwHhhK3Arv2BdYlWIFDYcwK+Mflba48SF7l89oW0km5e3CT+f3YHpwB5U2s9y9VzID+fSVG21a3aQLeClhFPnOu2olr55wPYN0BVAKbYe9JrcDZGY6jCfAEX2AuOvsyhB7BqTBmBe7MCDxOq/PAVxwxWjMjoWyP2GiNva1ZgShqDCP0A3qyAvAMztGkEyj6f5OTCNsWlVOGXfy/tKSlDO04m3OjicQWOYPOfWAocSuwW18g3Ck8HbJW4Mr7AOXkIRh7hF77RrX8rsxldEqPH/GTRqCcMRVp7IJIFTOoM9/hA3XeCrT8NEKjwccF0mHBXufMr1yewR+XPnCTzjRM0LkPDCWuACgIbRVAZ19MuFN4OoyPC6Ae8yFYPhBrK2dM+AKo9Xqq9u6xc7dP7OHaMn7QMGzJF9gBOveBocQtjy+kCbRveXT2ZQijg6fCIisw3ro/ds+ubm5e89n68tXNs7tXt9govbYXie7ZCqDV19bK6NwHhhJXgCKVf4TOvphwp/B0+DOX/y1tEd9+CFiBsnsIc5CAAPAKpuKG7wk0vJ0o37zalRXoxt2hvVxA+LpvdwpTV5/TC5efOadzHxhKXAGQFdoqgM6+mK3cKbx7eGvDTA/KXtleP4DW+f4pe6jStyc2fgU28NqHAPjwMvNYa6bGgzJXz3oyqtyyAndcY9M56wSA1FvYkRUY8p6gjfNzqR0PKn210tRyAh5bU2tJdO4DQ4nbNTr7YrZzp/CRc4/4lvpnrODQvyv37DU8U3NRy6Unr6Fvd69GeupNRWBdslbgYZLdWigLfsAgaxn6r+3r9qr0+rFtPUysAPwDQFu9JlLFOXgrkA6Ht2y2rL1qhCtuV7niALexa/qx2dno3AeGErdrdPZl2HiPYHwYytEK+B2s76z/fij6Bi0QdgUTsDHGfIFZPPFrannuMttw1/hnK+9vDKniHMwKmDsAXyCiFaie4wsNPz8jPlwPelWurTV1N2A2OveBocTtGp19MVu7U4iKri1WdW8QANsbNEtmA4IV2CwLrcBukSrOASagPmYFQGoFLIptxrx9PnNlvSl07gNDids1Ovti1rUB01YgrfEevu4BwY8dPE/zBUqv78roMChusAIb48CswGKuylc3XN6fDcPjx+6WYQ9NW0aKcccVw33AJnopR0dOG7txtnOnkD6/HyJkAd49cO5J0iPwXc9kyCBYgY1xdFagdHfrHsAWPIQVeFTmICUr/avSp5f/qFeMJzfoOWrwGHvuoR3YjRXYyp3COxj027tHNvhkVf3qpv+6j+8nZgWeIAA/XgUrsFmOzwq8fvbAb5SlB09u2DqMrEDp6lk6VPHkdqPDFsfBbqzA5u8U2uDzAzPgr2DK3SNUdWzfwSbYaPRj2Huz6bASCONWYCMcnxXI4b92+V/U1r1nV77Aukync2zwGfW/P2rvNUYtHy+wWU7GCoxPgrzX7MYKbOFOYWBPBCtweuymdm3jTqHNPLNXP5Z0u/Dxg1f2DZ54d+AZRwkDGyVYgdPj48uva2ubrGsDcqxAduaQjQC8Hs1bQ+1/zfHehGANNkWwAqfHbqzA5u8U9n3Vfs3XvD+wIYEre5A1vSPw2D2DXbi54hzizBhwYE1Oxgr8rcs/p617z26swObvFN71n7nHT/Bx8+oOHwPeMRyzAneDAV/+LG7LfGdsYAOcjBU4mQtZn131CDY/awg9giv30Hv9r24GD25uHd/2nDC4evioT5PA2g+XYXQHIbAewQqcHrvyBdZllhV4yFlBnkHpzg8Xpj2CjEUAydPtgXUJVuD02NW4wKZ7BDYZ6KbvR/38nYIJKwCe3Gh+cTmMDm6MYAVOj131CDY+LpA8LeiRFRj9duU7+gK3nExshA7BpthVu7F1ghUYsSsrsC7TPQJy559Vf22zBceeawcTkwsDm+FkrMDJXMj67CorNj86GNgPp1B5/szH4GuX/8KH4HsKu8/spkzD6qOnwylYgW//0mVC6BWA3ZRpeE/h6XAKViA1A8EIkF35AusSrMChcBJWoPSdnzUjELoDxq4GSkOP4FQ4DSvgzUAwAp7dWIHwnsLT4USsQOmb3/jab2vz3rMrK7AuwQocCgdmBbQQbgH+N/+4NlZH5z4ZdtUjCKODp8LJWIE10LlPht1YgXCn8HQIViBYgWKEO4WnQ7ACwQoUI9wpPB2CFQhWoCihR3AqBCsQrEAxwp3C0yFYgWAFihHuFJ4OwQoEK1CUMDp4KgQrEKxAMcKdwtMhWIHTswK7WZQ93Ck8HQ6sJFQvd4vOfTLsxgqEO4WnQ7ACwQoUJfQIToVjsQJt5860SSLnhq3mcERX4UbdudHvSrVa8Vuxc5HfmkTnPhl21SMIVuBUOHQrgOo+BSqzWYHMvrjVGmqrUvUbvtL38Kvdo6RgBTZLuFN4Ohy6FajEArVaW3GlGTWcq0es3A3U8mrDxz1ztdY5ftejKEL8RmReQBSbEQhWYOOE0cFT4dCtwAhYAW2Nmv2I34kJgEFA/R8O6yNXgB6C/zSwNfRbk+jcJ8OuRgdDj+BUOHwrQC9gDLbokz0CmIguPtr4jv0e2oq4RR/CW4Emdtdsawqd+2TYVY8g+AKngq3Xdzj8w6qYGVCP+cWKDtD8j6xAq1VDxUbtryCU44eOtT9jNVj/EyvQYcDIbxhDWXEy7MoXWJdgBQ6Fo/AF+IU6zK+sFWhWXbWHNr7OuwKt5lliBTK+gFmBruuwu3CWvXeQRec+GXY1LhB6BKfCsVkBVnV8ncO95+g/N1DXYzr7NBCIhD0x/II4rskKOFeNEIAYtcQxGEfnPhl21SMIVuBUOCorQKef9Zijgqjb3RbvCtaGQ5iGUSg7CPQFmjgQgdgyGwB3ACCiq/lbBhl07pNhV1ZgXYIVOBQO3woI1F9ttVo9VeTematWrLXnlIBujFrfq6ODwLqP//Qaem10AnpVP2WAk4imjcDJWYFPLz/V1nYJo4OnwtFYgS2ic58Mu7EC4U7h6RCsQLACxQh3Ck+HYAWCFShGuFN4OkyXRN+5vjavyv677LQBHqa7Ex7e3moLPHYP/UbZDfzGKqhe7had+2TY1bhA6BGcCtmSQP3P0i+9wscA3Lpbfr0ulZ7caKe3C9oeAcPh3J0JC1Zgb+yqRxCswKkwYQX6/f4j5x7Zp2/yH5bL5Rt3g89yaYCK/gDmAP7As8HgyvaXHtv3o4dW+WEEyowlUhdiSVQvd4vOfTLsygqsS7ACh8I8X6A8XqVd+fUz52AEbtzjwcD3Ep7cOveYx8Jq3Fyxu4Dgu8dPEBJ8gX2xqx5BGB08Feb6AgNU6dQMoFJbDO7q9x/TClyh6j9zr0roO9y+ur158ur2IYJfw0wEK7A/djU6GHoEp8I8X2CmFRg88L2CUY8Adf72mbt57X/xEFiAm1fBCuyNXfUIgi9wKizwBVDrvQkAVqmvbtzNE1/BHZ0AuAHoOKAfYNuJFSDBCuyLXfkC6xKswKEwXRK0Bdp8jBpv1doGAx6V4Aa48h3DjZvSrX0N7u6wGzxLrMAr/nJyFlZB9XK36Nwnw9+4/Iva2i6hR3AqTJfEXb+ve33G6/6TUulJ3zv8cvtTOAw4gnstenFUL3eLzn0yfHL5rra2SbhTeDqEkjg9dmUF1iXo3gHwodb3Ab/88woLnAC7sQLhTuFpMDIDwQicFLuxAuFO4YkgMxCMwGmxqx5B8AVOAzMDwQicGLvyBdYlWIEDAWYgGIFTY1fjAqFHcCp8GIzAybGrHkGwAidDMAInx66swLoEKxAIbItd9QhOZ3RQ08f2gBKweSR/DygBgf2yq9HB0+kRSH/3gBKweSR/DygBgf3y5y7/lra2ySndKZT+7gElYPNI/h5QAgL75aPLD7W1TU7pTqH0dw8oAZtH8veAEhDYL7uxAqd0p1D6uweUgM0j+XtACQjsl91YgVO6Uyj93QNKwOaR/D2gBAT2y66swLoEKxCsQGBb7KpHEEYH10cJ2DySvwzNpn31oqhiG8bYjyw+cvo9hRIQ2C+7Gh0MPYL1UQI2j+RniG0BsDHsPf4956ra3+C3x3bylb8JQwtuI7LVf74h3AdNogQE9suuegTBF1gfJWDzSH4G1PJ6lKEuK3DmXOTf+p/QqkSo/+0oOkedj0ltVOW7zp31Wj1Yg+Q94JMoAYH9sitfYF2CFdi1FRi2ukPRZWtOK4Avq+Co111+k8RtUJQk0ritMCLbPYYSENgvuxoXCD2C9VECNo/kZzArkNRv1G5fxdG2u+FE9fbB+JzuERgQMqP2JygBgf2yqx5BsALrowRsHsnPkFgBVGDUblkBq//DJn1/11VXIar46l8dWjyCaBk/Av2DujaH04OESkBgv+zKCqxLsAKHYAUsmD/8CADoeCNQq9bw3Ta7UNex00w7BUpAYL/8nct/SFvb5dRHB5ttV7URsDO0fRYCKtB8a/+aVj2iKG0MUUtssD0haUhbyTjcDJSAzSP5GRIr4JEV6HEcEFYgUtPexq4OYjUsyWYNxKhHwBzIZMgUSkBgv3z98mNtbZN7cKcQ+l5rtprV0bhZpjUcDavPbiPZRFpFstYVATV+j4bfRigBm0fyM5gVyGBWwGo6gnGpZ+c2SMDq3e2O7hR684W4OjZCblQrHUYM9wgOmd1YgVO/U5jU8gTWgu6wHaPBPKvWh03sj1o1V7PqZX5xkyPvhAE6PGsDlrIC3/vhZl4vJ/kZkA4lw4PefWoFeg38BNXEw0+swAhEYscA8Cp4qxCcNaZNgRKQYVPXFFiBXfkC63LwVsC3gyRpR9EGtlk30FOgFUCtYC2o+GrFGTV+q8MOA5zqdlSRK9HD5zklTKAEeL73Q64GvBcrYDSHSGXbb8+wAqz51eGo2kcQ6GcQjaMEiE1eU2AFdmMFTv1O4QwrkK0UMfbDCFjNRngNLgJ+6ssOpOvc5ZiCZ1aFyVQZX1vItqzArlACwKavKbACu+oRrGsFPpWK7B/p7xhy6UckDWYCfQFU/zNs4otOgHwBfNEKeA/bDeO4Tu/Zhg9yewQ/9+NKyfqowkn+HvDn3+g1BYrwO1QQ22T9O4WHg/R3Aj5eU6m6OO36ppbBhtij1jlH1Gf6Ame8BRej/e/h29V5n2BWl0AJIEmt2bkvMHJSKpMPEPXOM7dAlkUJMDZ7TYEDZP2RgUNB+psFnnyH1RlmgLUX1R1VGzW/wbuDIyvQQ92ebQWiGrvWTZqAamSWAOZiGiUggbVm11agkSSNk4FsA/gZQky2bQyH0/MC8lACRmzumgIHx/p3Cg8H6W8GVg2r7GgQ2cWvwiTUJ60A/ltPAb+newR+gK13dt7jbTVQne4PTFcZ8E19r4fkL6ZJ2+VTmIBLQv1X9Sf8peiLUQLG2Mw1BQ6O9e8UHg7S35Revdq2hj6h0WrXOr20tnhfIIqyN8pkNUbwZ2TDA3oKb0ZVUgI2j+QvBumKRlOgDHYC6AWMsZ4VCJwop2MD8qvMudrCpEMfad48p9rTCljgiFlWoFWpJS5Ab9Y0GyVg80j+QjheEfFiUljhYQX8fgO7gxUIzOSUewS7QgnYPJK/CKv+UauLnswImi1YAf0icGiCFQjMYP07hYeD9HcPKAGbR/IXMXRVWoHkMQKDLk7oEQSW4fTvFO4CJWDzSP4impzqPKNHUPFDBN2qHw6N6jmrEM5ACQjcD076TuGOUAI2j+QvJrECWo2sblag41wX7kBEn6Bz3uT856UnDigBgfvAad8p3BVKwOaR/MUkVkDPGNgQQJdTCGAAbFSUTxL3ELzsjAElIHAfOOk7hTtDCdg8kr+YWVag1a3bLQ9RbbZ6M+5v5KAEBO4D9+FO4fZRAjaP5O8BJSBwPwg9gvVRAjaP5O8BJSBwHwh3CjeBErB5JH8PKAGB+0C4U7gJlIDNI/l7QAkI3A/C6OD6KAGbR/L3gBIQuA+EO4WbQAnYPJK/B5SAwH0g3CncBErA5pH8PaAEBO4D4U7hJlACNo/k7wElIHA/OKXxwUAgsDqndKcwEAgUIdiAQCBwSiMDgUBgdU7pTmEgECjCKd0pDAQCRYAN+L5zLnyFr/B1X7++X/r/A5m2eg0CUNs6AAAAAElFTkSuQmCC;" vertex="1" parent="1">
          <mxGeometry x="70" y="-1040" width="586.47" height="300" as="geometry" />
        </mxCell>
        <mxCell id="jt2V4Dkn-G00_b4HjtjB-6" style="edgeStyle=orthogonalEdgeStyle;rounded=0;orthogonalLoop=1;jettySize=auto;html=1;entryX=0.5;entryY=0;entryDx=0;entryDy=0;" edge="1" parent="1" source="jt2V4Dkn-G00_b4HjtjB-4" target="jt2V4Dkn-G00_b4HjtjB-5">
          <mxGeometry relative="1" as="geometry">
            <Array as="points">
              <mxPoint x="112" y="503" />
              <mxPoint x="112" y="503" />
            </Array>
          </mxGeometry>
        </mxCell>
        <mxCell id="jt2V4Dkn-G00_b4HjtjB-4" value="缺人" style="rounded=1;whiteSpace=wrap;html=1;" vertex="1" parent="1">
          <mxGeometry x="62" y="9" width="100" height="60" as="geometry" />
        </mxCell>
        <mxCell id="jt2V4Dkn-G00_b4HjtjB-8" style="edgeStyle=orthogonalEdgeStyle;rounded=0;orthogonalLoop=1;jettySize=auto;html=1;entryX=0.5;entryY=0;entryDx=0;entryDy=0;" edge="1" parent="1" source="jt2V4Dkn-G00_b4HjtjB-5" target="jt2V4Dkn-G00_b4HjtjB-7">
          <mxGeometry relative="1" as="geometry" />
        </mxCell>
        <mxCell id="jt2V4Dkn-G00_b4HjtjB-5" value="有人了" style="whiteSpace=wrap;html=1;rounded=1;" vertex="1" parent="1">
          <mxGeometry x="62" y="640" width="100" height="60" as="geometry" />
        </mxCell>
        <mxCell id="jt2V4Dkn-G00_b4HjtjB-7" value="管理" style="whiteSpace=wrap;html=1;rounded=1;" vertex="1" parent="1">
          <mxGeometry x="52" y="1169" width="120" height="60" as="geometry" />
        </mxCell>
        <mxCell id="jt2V4Dkn-G00_b4HjtjB-11" value="" style="shape=curlyBracket;whiteSpace=wrap;html=1;rounded=1;labelPosition=left;verticalLabelPosition=middle;align=right;verticalAlign=middle;" vertex="1" parent="1">
          <mxGeometry x="180" y="495" width="20" height="350" as="geometry" />
        </mxCell>
        <mxCell id="jt2V4Dkn-G00_b4HjtjB-20" value="" style="group" vertex="1" connectable="0" parent="1">
          <mxGeometry x="210" y="450" width="150" height="120" as="geometry" />
        </mxCell>
        <mxCell id="jt2V4Dkn-G00_b4HjtjB-17" value="1、400话务坐席" style="whiteSpace=wrap;html=1;fontSize=14;rounded=1;" vertex="1" parent="jt2V4Dkn-G00_b4HjtjB-20">
          <mxGeometry y="30" width="120" height="60" as="geometry" />
        </mxCell>
        <mxCell id="jt2V4Dkn-G00_b4HjtjB-18" value="" style="shape=curlyBracket;whiteSpace=wrap;html=1;rounded=1;labelPosition=left;verticalLabelPosition=middle;align=right;verticalAlign=middle;fontSize=14;" vertex="1" parent="jt2V4Dkn-G00_b4HjtjB-20">
          <mxGeometry x="130" width="20" height="120" as="geometry" />
        </mxCell>
        <mxCell id="jt2V4Dkn-G00_b4HjtjB-21" value="" style="group" vertex="1" connectable="0" parent="1">
          <mxGeometry x="210" y="780" width="150" height="120" as="geometry" />
        </mxCell>
        <mxCell id="jt2V4Dkn-G00_b4HjtjB-22" value="2、项目管理" style="whiteSpace=wrap;html=1;fontSize=14;rounded=1;" vertex="1" parent="jt2V4Dkn-G00_b4HjtjB-21">
          <mxGeometry y="30" width="120" height="60" as="geometry" />
        </mxCell>
        <mxCell id="jt2V4Dkn-G00_b4HjtjB-23" value="" style="shape=curlyBracket;whiteSpace=wrap;html=1;rounded=1;labelPosition=left;verticalLabelPosition=middle;align=right;verticalAlign=middle;fontSize=14;" vertex="1" parent="jt2V4Dkn-G00_b4HjtjB-21">
          <mxGeometry x="130" width="20" height="120" as="geometry" />
        </mxCell>
        <mxCell id="jt2V4Dkn-G00_b4HjtjB-24" value="专业技能培养" style="whiteSpace=wrap;html=1;fontSize=14;rounded=1;" vertex="1" parent="1">
          <mxGeometry x="360" y="410" width="120" height="60" as="geometry" />
        </mxCell>
        <mxCell id="jt2V4Dkn-G00_b4HjtjB-25" value="" style="shape=curlyBracket;whiteSpace=wrap;html=1;rounded=1;labelPosition=left;verticalLabelPosition=middle;align=right;verticalAlign=middle;fontSize=14;" vertex="1" parent="1">
          <mxGeometry x="490" y="380" width="20" height="120" as="geometry" />
        </mxCell>
        <mxCell id="jt2V4Dkn-G00_b4HjtjB-26" value="流程规范" style="whiteSpace=wrap;html=1;fontSize=14;rounded=1;" vertex="1" parent="1">
          <mxGeometry x="360" y="550" width="120" height="60" as="geometry" />
        </mxCell>
        <mxCell id="jt2V4Dkn-G00_b4HjtjB-27" value="" style="shape=curlyBracket;whiteSpace=wrap;html=1;rounded=1;labelPosition=left;verticalLabelPosition=middle;align=right;verticalAlign=middle;fontSize=14;" vertex="1" parent="1">
          <mxGeometry x="490" y="520" width="20" height="120" as="geometry" />
        </mxCell>
        <mxCell id="jt2V4Dkn-G00_b4HjtjB-31" value="" style="group" vertex="1" connectable="0" parent="1">
          <mxGeometry x="360" y="700" width="150" height="120" as="geometry" />
        </mxCell>
        <mxCell id="jt2V4Dkn-G00_b4HjtjB-32" value="管理模式" style="whiteSpace=wrap;html=1;fontSize=14;rounded=1;" vertex="1" parent="jt2V4Dkn-G00_b4HjtjB-31">
          <mxGeometry y="30" width="120" height="60" as="geometry" />
        </mxCell>
        <mxCell id="jt2V4Dkn-G00_b4HjtjB-33" value="" style="shape=curlyBracket;whiteSpace=wrap;html=1;rounded=1;labelPosition=left;verticalLabelPosition=middle;align=right;verticalAlign=middle;fontSize=14;" vertex="1" parent="jt2V4Dkn-G00_b4HjtjB-31">
          <mxGeometry x="130" width="20" height="120" as="geometry" />
        </mxCell>
        <mxCell id="jt2V4Dkn-G00_b4HjtjB-34" value="" style="group" vertex="1" connectable="0" parent="1">
          <mxGeometry x="360" y="840" width="150" height="120" as="geometry" />
        </mxCell>
        <mxCell id="jt2V4Dkn-G00_b4HjtjB-35" value="业务负责" style="whiteSpace=wrap;html=1;fontSize=14;rounded=1;" vertex="1" parent="jt2V4Dkn-G00_b4HjtjB-34">
          <mxGeometry y="30" width="120" height="60" as="geometry" />
        </mxCell>
        <mxCell id="jt2V4Dkn-G00_b4HjtjB-36" value="" style="shape=curlyBracket;whiteSpace=wrap;html=1;rounded=1;labelPosition=left;verticalLabelPosition=middle;align=right;verticalAlign=middle;fontSize=14;" vertex="1" parent="jt2V4Dkn-G00_b4HjtjB-34">
          <mxGeometry x="130" width="20" height="120" as="geometry" />
        </mxCell>
        <mxCell id="jt2V4Dkn-G00_b4HjtjB-38" value="简历" style="whiteSpace=wrap;html=1;fontSize=14;rounded=1;" vertex="1" parent="1">
          <mxGeometry x="520" y="670" width="120" height="60" as="geometry" />
        </mxCell>
        <mxCell id="jt2V4Dkn-G00_b4HjtjB-41" value="" style="shape=curlyBracket;whiteSpace=wrap;html=1;rounded=1;labelPosition=left;verticalLabelPosition=middle;align=right;verticalAlign=middle;fontSize=14;" vertex="1" parent="1">
          <mxGeometry x="180" y="-80" width="20" height="230" as="geometry" />
        </mxCell>
        <mxCell id="jt2V4Dkn-G00_b4HjtjB-42" value="" style="group" vertex="1" connectable="0" parent="1">
          <mxGeometry x="210" y="90" width="150" height="120" as="geometry" />
        </mxCell>
        <mxCell id="jt2V4Dkn-G00_b4HjtjB-43" value="H3Ccare 工程师缺人" style="whiteSpace=wrap;html=1;fontSize=14;rounded=1;" vertex="1" parent="jt2V4Dkn-G00_b4HjtjB-42">
          <mxGeometry y="30" width="120" height="60" as="geometry" />
        </mxCell>
        <mxCell id="jt2V4Dkn-G00_b4HjtjB-45" value="" style="group" vertex="1" connectable="0" parent="1">
          <mxGeometry x="210" y="-153" width="150" height="120" as="geometry" />
        </mxCell>
        <mxCell id="jt2V4Dkn-G00_b4HjtjB-46" value="总部缺人" style="whiteSpace=wrap;html=1;fontSize=14;rounded=1;" vertex="1" parent="jt2V4Dkn-G00_b4HjtjB-45">
          <mxGeometry y="30" width="120" height="60" as="geometry" />
        </mxCell>
        <mxCell id="jt2V4Dkn-G00_b4HjtjB-47" value="" style="shape=curlyBracket;whiteSpace=wrap;html=1;rounded=1;labelPosition=left;verticalLabelPosition=middle;align=right;verticalAlign=middle;fontSize=14;" vertex="1" parent="jt2V4Dkn-G00_b4HjtjB-45">
          <mxGeometry x="130" width="20" height="120" as="geometry" />
        </mxCell>
        <mxCell id="jt2V4Dkn-G00_b4HjtjB-48" value="" style="group" vertex="1" connectable="0" parent="1">
          <mxGeometry x="370" y="-231" width="150" height="120" as="geometry" />
        </mxCell>
        <mxCell id="jt2V4Dkn-G00_b4HjtjB-49" value="招聘新员工" style="whiteSpace=wrap;html=1;fontSize=14;rounded=1;" vertex="1" parent="jt2V4Dkn-G00_b4HjtjB-48">
          <mxGeometry y="30" width="120" height="60" as="geometry" />
        </mxCell>
        <mxCell id="jt2V4Dkn-G00_b4HjtjB-51" value="" style="group" vertex="1" connectable="0" parent="1">
          <mxGeometry x="370" y="-69" width="150" height="120" as="geometry" />
        </mxCell>
        <mxCell id="jt2V4Dkn-G00_b4HjtjB-52" value="二线" style="whiteSpace=wrap;html=1;fontSize=14;rounded=1;" vertex="1" parent="jt2V4Dkn-G00_b4HjtjB-51">
          <mxGeometry y="-2" width="120" height="60" as="geometry" />
        </mxCell>
        <mxCell id="jt2V4Dkn-G00_b4HjtjB-60" style="edgeStyle=orthogonalEdgeStyle;rounded=0;orthogonalLoop=1;jettySize=auto;html=1;entryX=0;entryY=0.5;entryDx=0;entryDy=0;" edge="1" parent="1" source="jt2V4Dkn-G00_b4HjtjB-56" target="jt2V4Dkn-G00_b4HjtjB-57">
          <mxGeometry relative="1" as="geometry" />
        </mxCell>
        <mxCell id="jt2V4Dkn-G00_b4HjtjB-56" value="代表处推荐简历" style="whiteSpace=wrap;html=1;fontSize=14;rounded=1;" vertex="1" parent="1">
          <mxGeometry x="385" y="120" width="105" height="60" as="geometry" />
        </mxCell>
        <mxCell id="jt2V4Dkn-G00_b4HjtjB-62" style="edgeStyle=orthogonalEdgeStyle;rounded=0;orthogonalLoop=1;jettySize=auto;html=1;entryX=0;entryY=0.5;entryDx=0;entryDy=0;" edge="1" parent="1" source="jt2V4Dkn-G00_b4HjtjB-57" target="jt2V4Dkn-G00_b4HjtjB-61">
          <mxGeometry relative="1" as="geometry" />
        </mxCell>
        <mxCell id="jt2V4Dkn-G00_b4HjtjB-57" value="总部筛选简历面试定级" style="whiteSpace=wrap;html=1;fontSize=14;rounded=1;" vertex="1" parent="1">
          <mxGeometry x="560" y="120" width="120" height="60" as="geometry" />
        </mxCell>
        <mxCell id="jt2V4Dkn-G00_b4HjtjB-58" style="edgeStyle=orthogonalEdgeStyle;rounded=0;orthogonalLoop=1;jettySize=auto;html=1;exitX=1;exitY=0.5;exitDx=0;exitDy=0;entryX=0;entryY=0.5;entryDx=0;entryDy=0;" edge="1" parent="1" source="jt2V4Dkn-G00_b4HjtjB-43" target="jt2V4Dkn-G00_b4HjtjB-56">
          <mxGeometry relative="1" as="geometry" />
        </mxCell>
        <mxCell id="jt2V4Dkn-G00_b4HjtjB-61" value="同步结果代表处" style="whiteSpace=wrap;html=1;fontSize=14;rounded=1;" vertex="1" parent="1">
          <mxGeometry x="740" y="120" width="120" height="60" as="geometry" />
        </mxCell>
        <mxCell id="jt2V4Dkn-G00_b4HjtjB-63" value="" style="shape=curlyBracket;whiteSpace=wrap;html=1;rounded=1;labelPosition=left;verticalLabelPosition=middle;align=right;verticalAlign=middle;fontSize=14;" vertex="1" parent="1">
          <mxGeometry x="870" y="90" width="20" height="120" as="geometry" />
        </mxCell>
        <mxCell id="jt2V4Dkn-G00_b4HjtjB-64" value="淘汰" style="whiteSpace=wrap;html=1;fontSize=14;rounded=1;" vertex="1" parent="1">
          <mxGeometry x="900" y="51" width="120" height="60" as="geometry" />
        </mxCell>
        <mxCell id="jt2V4Dkn-G00_b4HjtjB-65" value="录取" style="whiteSpace=wrap;html=1;fontSize=14;rounded=1;" vertex="1" parent="1">
          <mxGeometry x="900" y="170" width="120" height="60" as="geometry" />
        </mxCell>
      </root>
    </mxGraphModel>
  </diagram>
</mxfile>
